<svg width="451" height="460" viewBox="0 0 451 460" fill="none" xmlns="http://www.w3.org/2000/svg">
<rect x="54" y="20" width="397" height="440" rx="30" fill="#F4F4F4"/>
<rect width="184" height="185" rx="13" fill="#263238"/>
<path d="M96.8419 107.311L147.323 108.001C146.939 134.842 124.316 156.852 96.8419 156.852H96.5352L96.8419 107.311Z" fill="#455A64"/>
<path d="M88.8486 100.102L88.1393 149.644C60.7036 149.26 38.291 127.02 38.291 100.102C38.291 73.1841 61.087 50.5607 88.7911 50.5607C116.495 50.5607 139.291 72.9349 139.291 100.102H88.8486Z" fill="#FFB355"/>
<path d="M22.7035 24.6971C25.573 24.6971 27.8993 22.3709 27.8993 19.5014C27.8993 16.6319 25.573 14.3057 22.7035 14.3057C19.834 14.3057 17.5078 16.6319 17.5078 19.5014C17.5078 22.3709 19.834 24.6971 22.7035 24.6971Z" fill="#3EBA59"/>
<path d="M40.2075 24.6971C43.077 24.6971 45.4032 22.3709 45.4032 19.5014C45.4032 16.6319 43.077 14.3057 40.2075 14.3057C37.3379 14.3057 35.0117 16.6319 35.0117 19.5014C35.0117 22.3709 37.3379 24.6971 40.2075 24.6971Z" fill="#FFB355"/>
<path d="M62.9071 19.5781C62.9071 20.6057 62.6023 21.6102 62.0314 22.4647C61.4605 23.3191 60.6491 23.985 59.6997 24.3783C58.7503 24.7715 57.7056 24.8744 56.6977 24.6739C55.6898 24.4735 54.7641 23.9786 54.0374 23.252C53.3108 22.5254 52.8159 21.5996 52.6155 20.5917C52.415 19.5838 52.5179 18.5391 52.9111 17.5897C53.3044 16.6403 53.9703 15.8289 54.8248 15.258C55.6792 14.6871 56.6837 14.3823 57.7113 14.3823C59.0893 14.3823 60.4109 14.9297 61.3853 15.9041C62.3597 16.8785 62.9071 18.2001 62.9071 19.5781Z" fill="#FF6868"/>
<path d="M390.207 209H295.135C279.326 209 266.51 221.816 266.51 237.625V247.131C266.51 262.94 279.326 275.755 295.135 275.755H390.207C406.016 275.755 418.832 262.94 418.832 247.131V237.625C418.832 221.816 406.016 209 390.207 209Z" fill="white"/>
<path d="M90.0315 283.536C89.89 271.271 93.3849 259.24 100.075 248.961C106.765 238.681 116.351 230.614 127.622 225.777C138.893 220.941 151.345 219.552 163.405 221.786C175.464 224.02 186.592 229.776 195.383 238.329C204.174 246.881 210.235 257.847 212.799 269.841C215.364 281.834 214.317 294.319 209.793 305.719C205.268 317.119 197.467 326.923 187.375 333.893C177.283 340.863 165.353 344.688 153.089 344.883C136.598 345.089 120.699 338.746 108.878 327.246C97.0565 315.745 90.279 300.026 90.0315 283.536ZM181.76 281.995C181.638 276.137 179.785 270.447 176.433 265.641C173.082 260.835 168.382 257.129 162.928 254.99C157.473 252.85 151.507 252.374 145.782 253.62C140.057 254.867 134.829 257.78 130.758 261.993C126.686 266.207 123.953 271.531 122.903 277.295C121.852 283.059 122.532 289.005 124.856 294.384C127.18 299.762 131.044 304.332 135.962 307.518C140.879 310.703 146.63 312.361 152.489 312.284C160.376 312.15 167.889 308.892 173.377 303.225C178.865 297.558 181.88 289.945 181.76 282.057V281.995Z" fill="#F5F5F5"/>
<path d="M90.0308 283.536C89.7461 267.044 96.0142 251.113 107.46 239.237C118.906 227.36 134.595 220.509 151.086 220.185L151.61 252.723C143.703 252.85 136.171 256.112 130.67 261.792C125.169 267.472 122.149 275.105 122.276 283.012C122.403 290.918 125.665 298.45 131.345 303.951C137.026 309.453 144.658 312.472 152.565 312.345L153.089 344.883C136.596 345.093 120.694 338.752 108.872 327.25C97.0505 315.749 90.2743 300.027 90.0308 283.536Z" fill="#455A64"/>
<path d="M181.761 282.057C181.778 282.215 181.778 282.375 181.761 282.534V283.952C181.77 284.72 181.719 285.487 181.607 286.247C181.51 287.286 181.334 288.316 181.083 289.328C180.479 292.157 179.439 294.875 178.002 297.386C176.132 300.745 173.619 303.703 170.607 306.09C166.694 309.249 162.04 311.358 157.085 312.218C152.131 313.078 147.038 312.66 142.29 311.005C140.936 310.535 139.614 309.979 138.33 309.341C137.037 308.65 135.791 307.873 134.602 307.015C133.393 306.139 132.24 305.187 131.151 304.165C130.077 303.08 129.074 301.927 128.147 300.714C126.235 298.222 124.737 295.439 123.71 292.471C122.695 289.402 122.145 286.198 122.077 282.966C122.056 279.734 122.529 276.518 123.479 273.429C124.403 270.429 125.808 267.598 127.638 265.048C129.36 262.554 131.472 260.353 133.893 258.531C135.034 257.659 136.234 256.866 137.483 256.159C138.739 255.472 140.041 254.875 141.381 254.372C147.911 251.875 155.111 251.754 161.721 254.03C168.331 256.305 173.93 260.833 177.539 266.82C179.056 269.282 180.184 271.963 180.883 274.769C181.161 275.78 181.367 276.81 181.499 277.851C181.639 278.603 181.716 279.366 181.73 280.131C181.73 280.732 181.73 281.194 181.73 281.548C181.75 281.712 181.75 281.877 181.73 282.041C181.683 281.886 181.657 281.726 181.653 281.564C181.653 281.194 181.576 280.732 181.514 280.146C181.475 279.385 181.378 278.628 181.222 277.881C181.063 276.839 180.831 275.81 180.528 274.8C179.793 272.042 178.64 269.413 177.108 267.005C175.088 263.792 172.474 260.995 169.405 258.762C165.454 255.835 160.827 253.955 155.954 253.297C151.08 252.64 146.12 253.227 141.535 255.003C138.886 256.004 136.408 257.407 134.186 259.163C131.871 260.958 129.862 263.117 128.239 265.556C126.462 268.045 125.095 270.802 124.187 273.722C123.274 276.717 122.817 279.834 122.832 282.966C122.946 289.203 125.033 295.243 128.794 300.221C130.539 302.604 132.663 304.685 135.08 306.383C136.23 307.224 137.44 307.981 138.7 308.648C139.946 309.278 141.233 309.824 142.552 310.281C147.189 311.913 152.163 312.344 157.012 311.536C161.861 310.728 166.426 308.706 170.283 305.659C173.256 303.324 175.755 300.443 177.647 297.17C179.096 294.71 180.166 292.046 180.821 289.267C181.098 288.257 181.294 287.227 181.406 286.185C181.546 285.433 181.624 284.67 181.637 283.905C181.637 283.32 181.715 282.858 181.73 282.488C181.726 282.344 181.736 282.199 181.761 282.057Z" fill="#263238"/>
<path d="M90.0308 283.535C90.0308 283.535 90.0308 283.874 90.1387 284.537C90.2465 285.199 90.2619 286.216 90.3698 287.479C90.3698 288.142 90.4776 288.866 90.5392 289.652C90.6009 290.437 90.8165 291.316 90.9706 292.255C91.1247 293.195 91.3095 294.197 91.4944 295.337C91.7242 296.475 92.0122 297.601 92.3572 298.711C93.8931 304.504 96.2981 310.031 99.4903 315.103C103.652 321.862 109.076 327.757 115.467 332.466L118.163 334.422C119.102 335.039 120.104 335.578 121.09 336.179C122.076 336.779 123.062 337.396 124.171 337.889L127.406 339.429L129.04 340.184L130.765 340.785L134.262 342.002C135.449 342.387 136.696 342.618 137.929 342.927C139.159 343.272 140.409 343.539 141.673 343.728C144.265 344.17 146.886 344.433 149.514 344.513C150.839 344.513 152.195 344.652 153.551 344.606L157.634 344.329C158.327 344.329 159.02 344.329 159.698 344.159L161.747 343.805C163.118 343.543 164.52 343.373 165.907 343.05C171.548 341.669 176.985 339.561 182.083 336.779C183.377 336.04 184.61 335.239 185.889 334.407C187.177 333.611 188.407 332.726 189.571 331.757C192.004 329.863 194.305 327.804 196.457 325.595L199.539 322.082L200.309 321.204L201.002 320.249L202.373 318.323L203.76 316.397L204.977 314.333L206.179 312.268L206.78 311.236L207.288 310.142L209.306 305.751L210.847 301.129C214.878 288.404 214.662 274.713 210.231 262.121L208.474 257.499C207.766 256.051 207.041 254.602 206.317 253.17L205.778 252.091L205.147 251.074L203.868 249.041L202.604 247.023L201.156 245.143L199.708 243.263L198.999 242.339L198.183 241.476C197.12 240.321 196.057 239.196 194.994 238.056C192.774 235.939 190.412 233.978 187.922 232.186C186.729 231.251 185.467 230.407 184.148 229.66C182.854 228.905 181.59 228.119 180.281 227.395C177.652 226.074 174.94 224.926 172.162 223.959C169.458 223.01 166.694 222.243 163.889 221.664C162.502 221.386 161.1 221.248 159.729 221.032L157.649 220.755C156.971 220.662 156.278 220.755 155.585 220.647L151.486 220.508C150.131 220.508 148.79 220.662 147.465 220.724C144.841 220.891 142.23 221.241 139.654 221.772C138.394 221.996 137.149 222.3 135.926 222.681C134.709 223.035 133.477 223.312 132.306 223.728L128.855 225.069L127.145 225.716L125.527 226.532L122.338 228.073C121.29 228.581 120.35 229.29 119.364 229.875C118.378 230.461 117.408 231.077 116.483 231.724L113.849 233.758C107.614 238.671 102.384 244.739 98.4427 251.629C95.4159 256.804 93.1926 262.409 91.8488 268.252C91.5353 269.373 91.2832 270.509 91.0939 271.657C90.9398 272.736 90.7857 273.737 90.6625 274.738C90.5392 275.74 90.3698 276.541 90.3081 277.327C90.2465 278.112 90.3081 278.867 90.2157 279.514C90.2157 280.793 90.1078 281.764 90.077 282.457C90.0462 283.15 90 283.474 90 283.474C90 283.474 90 283.135 90 282.457C90 281.779 90 280.778 90 279.499C90 278.852 90 278.112 90 277.311C90 276.51 90.2003 275.647 90.3081 274.708C90.416 273.768 90.57 272.736 90.7087 271.626C90.8869 270.469 91.1287 269.322 91.4328 268.191C92.7414 262.307 94.9334 256.656 97.9342 251.429C101.86 244.462 107.091 238.316 113.341 233.326L115.99 231.262C116.93 230.599 117.916 230.014 118.887 229.382C119.857 228.751 120.828 228.073 121.891 227.549L125.111 226.008L126.652 225.176L128.377 224.514L131.874 223.158C133.045 222.727 134.293 222.45 135.526 222.08C136.765 221.694 138.025 221.38 139.3 221.14C141.902 220.603 144.537 220.248 147.188 220.077C148.528 220.077 149.884 219.846 151.255 219.83L155.4 219.969C156.093 219.969 156.786 219.969 157.495 220.077L159.575 220.354C160.977 220.57 162.394 220.709 163.796 220.971C166.637 221.562 169.437 222.339 172.177 223.297C175.072 224.253 177.893 225.416 180.62 226.779C181.945 227.487 183.239 228.319 184.548 229.059C185.88 229.816 187.156 230.666 188.369 231.601C190.891 233.422 193.29 235.409 195.548 237.548L198.768 240.999L199.585 241.877L200.324 242.817L201.773 244.712L203.313 246.622L204.592 248.656L205.886 250.72L206.533 251.752L207.072 252.831L209.275 257.221C209.861 258.762 210.446 260.303 211.047 261.843C215.54 274.594 215.756 288.461 211.663 301.345L210.123 305.967C209.445 307.508 208.752 308.94 208.074 310.419L207.565 311.529L206.949 312.576L205.732 314.671L204.499 316.751L203.097 318.693L201.695 320.634L201.002 321.604L200.216 322.498C199.169 323.7 198.137 324.886 197.135 326.057C194.95 328.265 192.618 330.324 190.156 332.219C188.976 333.192 187.73 334.082 186.428 334.885C185.134 335.686 183.886 336.533 182.576 337.288C179.969 338.715 177.267 339.961 174.488 341.016C171.78 342.06 169.006 342.925 166.184 343.604C164.797 343.928 163.38 344.097 161.994 344.359L159.914 344.714C159.22 344.822 158.512 344.822 157.818 344.883L153.69 345.145C152.318 345.145 150.963 345.145 149.607 345.053C146.952 344.955 144.307 344.682 141.688 344.236C140.41 344.037 139.145 343.764 137.898 343.42C136.65 343.096 135.402 342.865 134.201 342.464L130.673 341.232L128.932 340.616L127.268 339.845L124.017 338.305C122.939 337.812 121.968 337.134 120.936 336.564C119.904 335.994 118.933 335.408 117.978 334.792L115.266 332.805C108.8 328.075 103.312 322.137 99.1051 315.319C95.9256 310.196 93.5511 304.615 92.0645 298.772C91.7272 297.629 91.4597 296.466 91.2633 295.29L90.7549 292.209C90.6163 291.269 90.4468 290.407 90.3698 289.605C90.2927 288.804 90.2773 288.065 90.2465 287.418C90.2465 286.139 90.1233 285.153 90.077 284.46C90.0308 283.766 90.0308 283.535 90.0308 283.535Z" fill="#263238"/>
<path d="M145.51 215.178C185.566 214.531 217.488 245.605 218.135 285.831L180.236 286.432C179.927 267.205 165.307 255.096 146.157 255.404L145.51 215.178Z" fill="#7781FF"/>
<path d="M145.509 215.178C145.509 215.178 145.509 215.44 145.509 215.933C145.509 216.426 145.509 217.15 145.509 218.043C145.509 219.938 145.616 222.665 145.709 226.116C145.863 233.095 146.063 243.063 146.341 255.388L146.032 255.095C149.874 255.037 153.705 255.508 157.418 256.497C161.504 257.571 165.34 259.434 168.71 261.982C172.333 264.757 175.264 268.332 177.276 272.428C179.365 276.798 180.469 281.573 180.512 286.416L180.111 286.031L209.383 285.554L217.933 285.415L217.548 285.816C217.341 278.197 216.039 270.647 213.681 263.399L211.956 258.315C211.232 256.667 210.415 255.08 209.629 253.493C208.874 251.895 208.009 250.351 207.041 248.871C206.191 247.395 205.255 245.97 204.237 244.604C203.22 243.263 202.204 241.954 201.156 240.644C200.108 239.335 198.953 238.256 197.89 237.07L196.272 235.345L194.531 233.804L191.111 230.723C186.771 227.31 182.057 224.4 177.061 222.049L173.702 220.508C172.577 220.062 171.468 219.707 170.39 219.322L167.308 218.244C166.292 217.92 165.275 217.72 164.227 217.473L161.408 216.795L160.083 216.472L158.773 216.287L154.151 215.625C152.926 215.455 151.691 215.358 150.454 215.332L147.727 215.193L146.109 215.178H145.509H147.727H150.485C151.747 215.158 153.008 215.23 154.259 215.394L158.881 215.979L160.191 216.164L161.531 216.457L164.381 217.119C165.352 217.366 166.384 217.535 167.463 217.859L170.544 218.922C171.622 219.307 172.747 219.646 173.872 220.077L177.276 221.618C182.335 223.954 187.111 226.859 191.512 230.276C192.636 231.277 193.792 232.279 194.963 233.357L196.734 234.898L198.368 236.639C199.446 237.825 200.601 238.981 201.68 240.244L204.761 244.234C205.797 245.608 206.749 247.043 207.611 248.532C208.593 250.009 209.468 251.553 210.23 253.154C211.001 254.695 211.863 256.343 212.587 258.023L214.544 263.184C216.938 270.504 218.261 278.132 218.473 285.831V286.232H218.072L209.522 286.37L180.25 286.832H179.849V286.447C179.837 281.721 178.785 277.056 176.768 272.782C174.823 268.779 171.975 265.282 168.449 262.568C165.158 260.062 161.411 258.22 157.418 257.145C153.767 256.16 149.998 255.678 146.217 255.712H145.909V255.419C145.77 243.094 145.663 232.972 145.601 225.931C145.601 222.496 145.601 219.769 145.601 217.936V215.871C145.493 215.409 145.509 215.178 145.509 215.178Z" fill="#263238"/>
<path d="M400.929 231.401H288.155C287.526 231.401 286.921 231.154 286.472 230.713C286.023 230.272 285.764 229.673 285.752 229.044C285.752 228.406 286.005 227.795 286.456 227.344C286.907 226.893 287.518 226.64 288.155 226.64H400.929C401.564 226.644 402.171 226.899 402.619 227.349C403.066 227.8 403.317 228.409 403.317 229.044C403.305 229.67 403.049 230.267 402.603 230.708C402.157 231.148 401.556 231.397 400.929 231.401Z" fill="#263238"/>
<path d="M400.929 244.188H288.155C287.518 244.188 286.907 243.935 286.456 243.484C286.005 243.033 285.752 242.422 285.752 241.785C285.75 241.468 285.811 241.153 285.931 240.86C286.05 240.567 286.227 240.3 286.45 240.075C286.674 239.85 286.939 239.672 287.232 239.55C287.525 239.428 287.838 239.366 288.155 239.366H400.929C401.246 239.366 401.56 239.428 401.853 239.55C402.145 239.672 402.411 239.85 402.634 240.075C402.858 240.3 403.034 240.567 403.154 240.86C403.274 241.153 403.335 241.468 403.333 241.785C403.333 242.422 403.079 243.033 402.629 243.484C402.178 243.935 401.567 244.188 400.929 244.188Z" fill="#263238"/>
<path d="M339.397 256.975H288.155C287.518 256.975 286.907 256.722 286.456 256.271C286.005 255.82 285.752 255.209 285.752 254.572C285.75 254.255 285.811 253.941 285.931 253.647C286.05 253.354 286.227 253.087 286.45 252.862C286.674 252.637 286.939 252.459 287.232 252.337C287.525 252.216 287.838 252.153 288.155 252.153H339.397C339.714 252.151 340.028 252.212 340.321 252.331C340.615 252.451 340.881 252.628 341.106 252.851C341.331 253.075 341.509 253.34 341.631 253.633C341.753 253.926 341.815 254.239 341.815 254.556C341.818 254.874 341.756 255.19 341.635 255.484C341.515 255.779 341.337 256.046 341.112 256.271C340.887 256.496 340.619 256.674 340.325 256.795C340.03 256.916 339.715 256.977 339.397 256.975Z" fill="#263238"/>
<path d="M390.207 290.669H295.135C279.326 290.669 266.51 303.484 266.51 319.294V328.799C266.51 344.608 279.326 357.424 295.135 357.424H390.207C406.016 357.424 418.832 344.608 418.832 328.799V319.294C418.832 303.484 406.016 290.669 390.207 290.669Z" fill="white"/>
<path d="M404.011 399.052H278.096C274.597 399.048 271.243 397.655 268.77 395.179C266.297 392.704 264.908 389.348 264.908 385.849C264.908 384.117 265.249 382.402 265.912 380.802C266.575 379.202 267.546 377.748 268.771 376.524C269.995 375.299 271.449 374.328 273.049 373.665C274.649 373.002 276.364 372.661 278.096 372.661H404.011C407.51 372.661 410.866 374.05 413.342 376.523C415.818 378.995 417.211 382.35 417.215 385.849C417.215 389.35 415.824 392.709 413.348 395.185C410.871 397.661 407.513 399.052 404.011 399.052Z" fill="white"/>
<path d="M400.174 313.655H287.415C286.778 313.655 286.166 313.402 285.716 312.951C285.265 312.5 285.012 311.889 285.012 311.251C285.012 310.614 285.265 310.003 285.716 309.552C286.166 309.101 286.778 308.848 287.415 308.848H400.174C400.489 308.848 400.802 308.91 401.093 309.031C401.385 309.152 401.65 309.329 401.873 309.552C402.096 309.775 402.273 310.04 402.394 310.332C402.515 310.623 402.577 310.936 402.577 311.251C402.577 311.567 402.515 311.88 402.394 312.171C402.273 312.463 402.096 312.728 401.873 312.951C401.65 313.174 401.385 313.351 401.093 313.472C400.802 313.593 400.489 313.655 400.174 313.655Z" fill="#263238"/>
<path d="M395.367 388.545H282.608C281.971 388.545 281.36 388.292 280.909 387.841C280.458 387.39 280.205 386.779 280.205 386.141C280.205 385.504 280.458 384.893 280.909 384.442C281.36 383.991 281.971 383.738 282.608 383.738H395.367C395.693 383.728 396.018 383.783 396.321 383.902C396.625 384.021 396.901 384.201 397.133 384.43C397.365 384.659 397.548 384.933 397.671 385.235C397.794 385.538 397.854 385.862 397.847 386.188C397.841 386.506 397.772 386.82 397.644 387.111C397.516 387.403 397.331 387.666 397.1 387.885C396.869 388.104 396.597 388.275 396.3 388.389C396.002 388.502 395.685 388.555 395.367 388.545Z" fill="#263238"/>
<path d="M400.174 326.442H287.415C286.778 326.442 286.166 326.189 285.716 325.738C285.265 325.287 285.012 324.676 285.012 324.039C285.012 323.401 285.265 322.79 285.716 322.339C286.166 321.888 286.778 321.635 287.415 321.635H400.174C400.489 321.635 400.802 321.697 401.093 321.818C401.385 321.939 401.65 322.116 401.873 322.339C402.096 322.562 402.273 322.827 402.394 323.119C402.515 323.41 402.577 323.723 402.577 324.039C402.577 324.354 402.515 324.667 402.394 324.958C402.273 325.25 402.096 325.515 401.873 325.738C401.65 325.961 401.385 326.138 401.093 326.259C400.802 326.38 400.489 326.442 400.174 326.442Z" fill="#263238"/>
<path d="M338.656 339.229H287.415C286.778 339.229 286.166 338.976 285.716 338.525C285.265 338.074 285.012 337.463 285.012 336.826C285.012 336.188 285.265 335.577 285.716 335.126C286.166 334.676 286.778 334.422 287.415 334.422H338.656C339.294 334.422 339.905 334.676 340.356 335.126C340.807 335.577 341.06 336.188 341.06 336.826C341.06 337.463 340.807 338.074 340.356 338.525C339.905 338.976 339.294 339.229 338.656 339.229Z" fill="#263238"/>
<path d="M258.637 223.266C257.94 223.381 257.234 223.433 256.527 223.42L250.78 223.543C245.927 223.543 239.21 223.667 231.815 223.667H223.172L223.45 223.559C219.675 227.287 216.424 230.461 214.098 232.695L211.433 235.206C211.128 235.537 210.781 235.827 210.4 236.069C210.642 235.688 210.932 235.341 211.263 235.036L213.851 232.294C216.07 229.968 219.259 226.717 222.987 222.943L223.095 222.835H231.892C239.287 222.835 246.004 222.835 250.857 222.943L256.604 223.066C257.287 223.067 257.968 223.134 258.637 223.266Z" fill="#263238"/>
<path d="M256.974 226.579C258.744 226.579 260.179 225.144 260.179 223.374C260.179 221.604 258.744 220.17 256.974 220.17C255.204 220.17 253.77 221.604 253.77 223.374C253.77 225.144 255.204 226.579 256.974 226.579Z" fill="#263238"/>
<path d="M256.974 322.899C258.744 322.899 260.179 321.464 260.179 319.694C260.179 317.924 258.744 316.49 256.974 316.49C255.204 316.49 253.77 317.924 253.77 319.694C253.77 321.464 255.204 322.899 256.974 322.899Z" fill="#263238"/>
<path d="M254.848 320.264C253.064 320.47 251.267 320.547 249.471 320.495C246.143 320.495 241.552 320.495 236.484 320.495L223.512 320.372L219.568 320.279C219.091 320.313 218.612 320.313 218.135 320.279C219.898 319.919 221.699 319.779 223.496 319.863C226.824 319.771 231.415 319.725 236.484 319.756C241.552 319.786 246.143 319.848 249.471 319.94C251.269 319.907 253.067 320.015 254.848 320.264Z" fill="#263238"/>
<path d="M120.613 390.671H110.105V401.178H120.613V390.671Z" fill="#455A64"/>
<path d="M155.847 390.671H145.34V401.178H155.847V390.671Z" fill="#E0E0E0"/>
<path d="M194.07 390.671H183.562V401.178H194.07V390.671Z" fill="#7781FF"/>
<path d="M426.467 118.72C426.467 118.91 379.721 119.049 322.07 119.049C264.418 119.049 217.646 118.91 217.646 118.72C217.646 118.53 264.38 118.391 322.07 118.391C379.759 118.391 426.467 118.542 426.467 118.72Z" fill="#E0E0E0"/>
<path d="M426.467 100.697C426.467 100.875 379.721 101.027 322.07 101.027C264.418 101.027 217.646 100.875 217.646 100.697C217.646 100.52 264.38 100.368 322.07 100.368C379.759 100.368 426.467 100.507 426.467 100.697Z" fill="#E0E0E0"/>
<path d="M426.467 82.6626C426.467 82.8525 379.721 82.9918 322.07 82.9918C264.418 82.9918 217.646 82.8525 217.646 82.6626C217.646 82.4726 264.38 82.3333 322.07 82.3333C379.759 82.3333 426.467 82.4852 426.467 82.6626Z" fill="#E0E0E0"/>
<path d="M426.467 64.6401C426.467 64.8174 379.721 64.9694 322.07 64.9694C264.418 64.9694 217.646 64.8174 217.646 64.6401C217.646 64.4628 264.38 64.3108 322.07 64.3108C379.759 64.3108 426.467 64.4501 426.467 64.6401Z" fill="#E0E0E0"/>
<path d="M252.691 110.551H235.314V145.494H252.691V110.551Z" fill="#7782FF"/>
<path d="M315.052 110.551H297.676V145.494H315.052V110.551Z" fill="#455A64"/>
<path d="M409.634 122.456H392.258V145.481H409.634V122.456Z" fill="#455A64"/>
<path d="M377.402 93.9977H360.025V145.481H377.402V93.9977Z" fill="#E0E0E0"/>
<path d="M345.525 73.9615H328.148V145.494H345.525V73.9615Z" fill="#7782FF"/>
<path d="M282.63 93.9977H265.254V145.481H282.63V93.9977Z" fill="#E0E0E0"/>
<path d="M423.984 145.494H423.199H420.919H412.155L379.897 145.595L273.511 145.696H217.38H217V145.392C217 117.719 217.101 94.1244 217.127 77.4319C217.127 69.111 217.19 62.5125 217.215 57.9658C217.215 55.7241 217.215 53.9889 217.215 52.7858C217.215 52.2158 217.215 51.7852 217.215 51.4559C217.205 51.3041 217.205 51.1518 217.215 51C217.215 51 217.215 51.1646 217.215 51.4559V52.7858C217.215 53.9889 217.215 55.7241 217.215 57.9658C217.215 62.5125 217.215 69.111 217.304 77.4319C217.304 94.1244 217.38 117.719 217.431 145.392L217.127 145.076H273.486L379.872 145.164L412.13 145.266L420.894 145.329H423.174L423.984 145.494Z" fill="#263238"/>
<path d="M261.504 163.212H253.867V170.849H261.504V163.212Z" fill="#7782FF"/>
<path d="M308.162 162.971H300.525V170.608H308.162V162.971Z" fill="#E0E0E0"/>
<path d="M358.633 163.212H350.996V170.849H358.633V163.212Z" fill="#455A64"/>
<path d="M286.784 166.783C283.329 167.117 279.856 167.227 276.386 167.113C272.917 167.227 269.444 167.117 265.988 166.783C269.444 166.458 272.917 166.348 276.386 166.454C279.856 166.348 283.328 166.458 286.784 166.783Z" fill="#263238"/>
<path d="M333.087 166.783C329.632 167.117 326.158 167.227 322.689 167.113C319.22 167.227 315.746 167.117 312.291 166.783C315.747 166.458 319.22 166.348 322.689 166.454C326.158 166.348 329.631 166.458 333.087 166.783Z" fill="#263238"/>
<path d="M382.379 166.784C375.458 167.223 368.517 167.223 361.596 166.784C368.517 166.344 375.458 166.344 382.379 166.784Z" fill="#263238"/>
</svg>
