<svg width="697" height="521" viewBox="0 0 697 521" fill="none" xmlns="http://www.w3.org/2000/svg">
<path d="M418.24 608C385.885 588.86 -76.2553 603.215 66.6846 290.752C209.625 -21.7106 600.295 -187.751 687.701 6.04257C775.107 199.836 531.723 480.718 291.236 501.294C50.7488 521.869 -108.127 380.232 -20.7212 223.762C66.6846 67.2911 476.671 -147.557 552.97 31.4033C629.269 210.364 531.723 394.109 291.236 405.115C50.7488 416.12 -54.5246 347.694 59.441 176.868C173.407 6.04262 463.15 -8.79102 453.492 84.0387C443.834 176.868 427.415 315.156 172.441 296.973C-82.5331 278.79 506.611 -25.5386 764 69.6835" stroke="#6052FF" stroke-opacity="0.2" stroke-width="1.5"/>
</svg>
