<svg width="80" height="81" viewBox="0 0 80 81" fill="none" xmlns="http://www.w3.org/2000/svg">
<rect width="80" height="80" rx="40" transform="matrix(-1 0 0 1 80 0.5)" fill="#394952"/>
<path d="M41.545 28.1073C41.9564 27.048 42.676 26.1375 43.6102 25.4941C44.5443 24.8508 45.6498 24.5044 46.7828 24.5C47.0807 24.5 47.3665 24.6188 47.5771 24.8302C47.7878 25.0416 47.9062 25.3283 47.9062 25.6273C47.9062 25.9262 47.7878 26.213 47.5771 26.4244C47.3665 26.6358 47.0807 26.7545 46.7828 26.7545C46.1018 26.7567 45.4372 26.9649 44.876 27.3521C44.3149 27.7392 43.8831 28.2873 43.6373 28.9245C43.5548 29.1372 43.41 29.3198 43.222 29.4481C43.0339 29.5764 42.8115 29.6444 42.5841 29.6432C42.4502 29.6403 42.3175 29.6165 42.1909 29.5727C42.0521 29.5197 41.9252 29.4396 41.8175 29.337C41.7097 29.2345 41.6233 29.1115 41.5633 28.9752C41.5032 28.8389 41.4706 28.6921 41.4675 28.5431C41.4644 28.3941 41.4907 28.246 41.545 28.1073ZM54.3657 45.89C53.4679 45.4375 52.7075 44.7517 52.1638 43.904C51.62 43.0564 51.3127 42.0779 51.274 41.0705C51.2353 40.0631 51.4665 39.0638 51.9436 38.1766C52.4207 37.2894 53.1262 36.5469 53.9865 36.0264C54.1201 35.9414 54.2347 35.8297 54.3234 35.6982C54.412 35.5668 54.4727 35.4185 54.5017 35.2625C54.5306 35.1065 54.5273 34.9462 54.4918 34.7915C54.4563 34.6369 54.3895 34.4912 54.2955 34.3636C52.769 32.4121 50.5478 31.1307 48.099 30.7891C45.6503 30.4475 43.1649 31.0722 41.1658 32.5318C39.7412 31.492 38.0578 30.8679 36.3017 30.7285C34.5456 30.5892 32.7853 30.94 31.2156 31.7422C29.6458 32.5443 28.3278 33.7666 27.4073 35.2737C26.4868 36.7809 25.9998 38.5142 26 40.2818C26.0338 43.9982 27.1517 47.6232 29.2157 50.7091C31.2378 53.7105 33.8076 55.5 36.1105 55.5H46.2211C49.3806 55.5 52.9474 52.1323 54.9133 47.3273C55.024 47.063 55.0289 46.7661 54.9268 46.4984C54.8248 46.2307 54.6238 46.0127 54.3657 45.89Z" fill="#7782FF"/>
</svg>
