<svg width="80" height="81" viewBox="0 0 80 81" fill="none" xmlns="http://www.w3.org/2000/svg">
<rect x="-0.5" y="0.5" width="79" height="79" rx="39.5" transform="matrix(-1 0 0 1 79 0.5)" stroke="#394952"/>
<g filter="url(#filter0_d_20_7879)">
<path d="M50.5937 35.0488L50.2857 34.7455L53.6205 31.3256C53.7913 31.1112 53.8786 30.8391 53.8654 30.5622C53.8522 30.2852 53.7394 30.0232 53.549 29.8272C53.3586 29.6311 53.1041 29.5149 52.8351 29.5013C52.5661 29.4877 52.3019 29.5776 52.0937 29.7536L48.6249 33.3389C46.1027 31.5118 43.093 30.5335 40.0091 30.5385C36.9252 30.5434 33.9184 31.5313 31.4018 33.3665L27.9062 29.7536C27.6981 29.5776 27.4338 29.4877 27.1648 29.5013C26.8958 29.5149 26.6414 29.6311 26.4509 29.8272C26.2605 30.0232 26.1477 30.2852 26.1345 30.5622C26.1213 30.8391 26.2086 31.1112 26.3795 31.3256L29.7411 34.773C28.242 36.2356 27.0484 37.9976 26.2332 39.9513C25.4181 41.905 24.9984 44.0094 25 46.1358V49.2936C25 49.8788 25.2258 50.44 25.6276 50.8538C26.0295 51.2675 26.5745 51.5 27.1429 51.5H52.8571C53.4254 51.5 53.9704 51.2675 54.3723 50.8538C54.7742 50.44 54.9999 49.8788 54.9999 49.2936V45.9841C55.006 43.9517 54.6195 41.9383 53.8631 40.061C53.1067 38.1837 51.9953 36.4799 50.5937 35.0488ZM35.1786 45.9841C34.8607 45.9841 34.55 45.887 34.2857 45.7052C34.0214 45.5234 33.8154 45.2649 33.6937 44.9626C33.5721 44.6602 33.5403 44.3275 33.6023 44.0065C33.6643 43.6855 33.8174 43.3907 34.0421 43.1592C34.2669 42.9278 34.5533 42.7702 34.865 42.7064C35.1768 42.6425 35.4999 42.6753 35.7936 42.8005C36.0872 42.9258 36.3382 43.1379 36.5148 43.41C36.6914 43.6821 36.7857 44.002 36.7857 44.3293C36.7857 44.7682 36.6164 45.1891 36.315 45.4994C36.0136 45.8098 35.6048 45.9841 35.1786 45.9841ZM44.8214 45.9841C44.5035 45.9841 44.1928 45.887 43.9285 45.7052C43.6642 45.5234 43.4582 45.2649 43.3366 44.9626C43.2149 44.6602 43.1831 44.3275 43.2451 44.0065C43.3071 43.6855 43.4602 43.3907 43.685 43.1592C43.9097 42.9278 44.1961 42.7702 44.5078 42.7064C44.8196 42.6425 45.1427 42.6753 45.4364 42.8005C45.7301 42.9258 45.9811 43.1379 46.1577 43.41C46.3343 43.6821 46.4285 44.002 46.4285 44.3293C46.4285 44.7682 46.2592 45.1891 45.9578 45.4994C45.6564 45.8098 45.2476 45.9841 44.8214 45.9841Z" fill="#7782FF"/>
</g>
<defs>
<filter id="filter0_d_20_7879" x="21" y="29.5" width="38" height="30" filterUnits="userSpaceOnUse" color-interpolation-filters="sRGB">
<feFlood flood-opacity="0" result="BackgroundImageFix"/>
<feColorMatrix in="SourceAlpha" type="matrix" values="0 0 0 0 0 0 0 0 0 0 0 0 0 0 0 0 0 0 127 0" result="hardAlpha"/>
<feOffset dy="4"/>
<feGaussianBlur stdDeviation="2"/>
<feComposite in2="hardAlpha" operator="out"/>
<feColorMatrix type="matrix" values="0 0 0 0 0 0 0 0 0 0 0 0 0 0 0 0 0 0 0.25 0"/>
<feBlend mode="normal" in2="BackgroundImageFix" result="effect1_dropShadow_20_7879"/>
<feBlend mode="normal" in="SourceGraphic" in2="effect1_dropShadow_20_7879" result="shape"/>
</filter>
</defs>
</svg>
