<svg width="323" height="357" viewBox="0 0 323 357" fill="none" xmlns="http://www.w3.org/2000/svg">
<g filter="url(#filter0_d_20_8001)">
<rect x="18" width="283" height="303" rx="37" fill="white"/>
</g>
<g clip-path="url(#clip0_20_8001)">
<path fillRule="evenodd" clipRule="evenodd" d="M77.9297 234C81.4898 234 84.9699 235.056 87.93 237.034C90.89 239.011 93.1971 241.823 94.5595 245.112C95.9219 248.401 96.2784 252.02 95.5838 255.512C94.8893 259.003 93.175 262.211 90.6576 264.728C88.1403 267.245 84.933 268.96 81.4413 269.654C77.9497 270.349 74.3305 269.992 71.0414 268.63C67.7523 267.267 64.9411 264.96 62.9632 262C60.9854 259.04 59.9297 255.56 59.9297 252C59.9297 247.226 61.8261 242.648 65.2018 239.272C68.5774 235.896 73.1558 234 77.9297 234V234Z" fill="#E8E8E8"/>
<path fillRule="evenodd" clipRule="evenodd" d="M78 241L81.5 246.506L85 252.014L78 255.727L71 252L74.5 246.492L78 241ZM78 257.211L71.3882 253.496L78 263L84.6118 253.496L78 257.211Z" fill="#343434"/>
<path fillRule="evenodd" clipRule="evenodd" d="M78 241L81.5 246.492L85 252L78 249.218V241Z" fill="#343434"/>
<path fillRule="evenodd" clipRule="evenodd" d="M78 256.903L85 253L78 263V256.903Z" fill="#313131"/>
<path fillRule="evenodd" clipRule="evenodd" d="M78 249L85 251.998L78 256V249Z" fill="#151515"/>
<path fillRule="evenodd" clipRule="evenodd" d="M78 241L74.5 246.492L71 252L78 249.218V241Z" fill="#8C8C8C"/>
<path fillRule="evenodd" clipRule="evenodd" d="M78 256.903L71 253L78 263V256.903Z" fill="#8A8A8A"/>
<path fillRule="evenodd" clipRule="evenodd" d="M78 249L71 251.998L78 256V249Z" fill="#353535"/>
</g>
<path d="M108.381 43.3636H110.375L113.415 48.6534H113.54L116.58 43.3636H118.574L114.352 50.4318V55H112.602V50.4318L108.381 43.3636ZM122.334 55.1761C121.516 55.1761 120.802 54.9886 120.192 54.6136C119.582 54.2386 119.108 53.714 118.771 53.0398C118.434 52.3655 118.266 51.5777 118.266 50.6761C118.266 49.7708 118.434 48.9792 118.771 48.3011C119.108 47.6231 119.582 47.0966 120.192 46.7216C120.802 46.3466 121.516 46.1591 122.334 46.1591C123.152 46.1591 123.866 46.3466 124.476 46.7216C125.086 47.0966 125.559 47.6231 125.896 48.3011C126.233 48.9792 126.402 49.7708 126.402 50.6761C126.402 51.5777 126.233 52.3655 125.896 53.0398C125.559 53.714 125.086 54.2386 124.476 54.6136C123.866 54.9886 123.152 55.1761 122.334 55.1761ZM122.339 53.75C122.87 53.75 123.309 53.6098 123.658 53.3295C124.006 53.0492 124.264 52.6761 124.43 52.2102C124.601 51.7443 124.686 51.2311 124.686 50.6705C124.686 50.1136 124.601 49.6023 124.43 49.1364C124.264 48.6667 124.006 48.2898 123.658 48.0057C123.309 47.7216 122.87 47.5795 122.339 47.5795C121.805 47.5795 121.362 47.7216 121.01 48.0057C120.661 48.2898 120.402 48.6667 120.232 49.1364C120.065 49.6023 119.982 50.1136 119.982 50.6705C119.982 51.2311 120.065 51.7443 120.232 52.2102C120.402 52.6761 120.661 53.0492 121.01 53.3295C121.362 53.6098 121.805 53.75 122.339 53.75ZM133.827 51.3807V46.2727H135.531V55H133.861V53.4886H133.77C133.569 53.9545 133.247 54.3428 132.804 54.6534C132.365 54.9602 131.817 55.1136 131.162 55.1136C130.601 55.1136 130.105 54.9905 129.673 54.7443C129.245 54.4943 128.908 54.125 128.662 53.6364C128.42 53.1477 128.298 52.5436 128.298 51.8239V46.2727H129.997V51.6193C129.997 52.214 130.162 52.6875 130.491 53.0398C130.821 53.392 131.249 53.5682 131.776 53.5682C132.094 53.5682 132.41 53.4886 132.724 53.3295C133.043 53.1705 133.306 52.9299 133.514 52.608C133.726 52.286 133.83 51.8769 133.827 51.3807ZM137.814 55V46.2727H139.456V47.6591H139.547C139.706 47.1894 139.986 46.8201 140.388 46.5511C140.793 46.2784 141.251 46.142 141.763 46.142C141.869 46.142 141.994 46.1458 142.138 46.1534C142.286 46.161 142.401 46.1705 142.484 46.1818V47.8068C142.416 47.7879 142.295 47.767 142.121 47.7443C141.946 47.7178 141.772 47.7045 141.598 47.7045C141.196 47.7045 140.839 47.7898 140.524 47.9602C140.214 48.1269 139.967 48.3598 139.786 48.6591C139.604 48.9545 139.513 49.2917 139.513 49.6705V55H137.814ZM148.325 55V43.3636H152.587C153.412 43.3636 154.096 43.5 154.638 43.7727C155.179 44.0417 155.585 44.4072 155.854 44.8693C156.123 45.3277 156.257 45.8447 156.257 46.4205C156.257 46.9053 156.168 47.3144 155.99 47.6477C155.812 47.9773 155.573 48.2424 155.274 48.4432C154.979 48.6402 154.653 48.7841 154.297 48.875V48.9886C154.683 49.0076 155.06 49.1326 155.428 49.3636C155.799 49.5909 156.106 49.9148 156.348 50.3352C156.59 50.7557 156.712 51.267 156.712 51.8693C156.712 52.464 156.571 52.9981 156.291 53.4716C156.015 53.9413 155.587 54.3144 155.007 54.5909C154.428 54.8636 153.687 55 152.786 55H148.325ZM150.081 53.4943H152.615C153.456 53.4943 154.058 53.3314 154.422 53.0057C154.786 52.6799 154.967 52.2727 154.967 51.7841C154.967 51.4167 154.875 51.0795 154.689 50.7727C154.503 50.4659 154.238 50.2216 153.893 50.0398C153.553 49.858 153.147 49.767 152.678 49.767H150.081V53.4943ZM150.081 48.3977H152.433C152.827 48.3977 153.181 48.322 153.496 48.1705C153.814 48.0189 154.066 47.8068 154.251 47.5341C154.441 47.2576 154.536 46.9318 154.536 46.5568C154.536 46.0758 154.367 45.6723 154.03 45.3466C153.693 45.0208 153.176 44.858 152.479 44.858H150.081V48.3977ZM161.197 55.1932C160.644 55.1932 160.144 55.0909 159.697 54.8864C159.25 54.678 158.896 54.3769 158.635 53.983C158.377 53.589 158.249 53.1061 158.249 52.5341C158.249 52.0417 158.343 51.6364 158.533 51.3182C158.722 51 158.978 50.7481 159.3 50.5625C159.622 50.3769 159.982 50.2367 160.379 50.142C160.777 50.0473 161.182 49.9754 161.595 49.9261C162.118 49.8655 162.542 49.8163 162.868 49.7784C163.194 49.7367 163.43 49.6705 163.578 49.5795C163.726 49.4886 163.8 49.3409 163.8 49.1364V49.0966C163.8 48.6004 163.66 48.2159 163.379 47.9432C163.103 47.6705 162.69 47.5341 162.141 47.5341C161.569 47.5341 161.118 47.661 160.788 47.9148C160.463 48.1648 160.237 48.4432 160.112 48.75L158.516 48.3864C158.705 47.8561 158.982 47.428 159.345 47.1023C159.713 46.7727 160.135 46.5341 160.612 46.3864C161.089 46.2348 161.591 46.1591 162.118 46.1591C162.466 46.1591 162.836 46.2008 163.226 46.2841C163.62 46.3636 163.987 46.5114 164.328 46.7273C164.673 46.9432 164.955 47.2519 165.175 47.6534C165.394 48.0511 165.504 48.5682 165.504 49.2045V55H163.845V53.8068H163.777C163.667 54.0265 163.502 54.2424 163.283 54.4545C163.063 54.6667 162.781 54.8428 162.436 54.983C162.091 55.1231 161.679 55.1932 161.197 55.1932ZM161.567 53.8295C162.036 53.8295 162.438 53.7367 162.771 53.5511C163.108 53.3655 163.364 53.1231 163.538 52.8239C163.716 52.5208 163.805 52.197 163.805 51.8523V50.7273C163.745 50.7879 163.627 50.8447 163.453 50.8977C163.283 50.947 163.088 50.9905 162.868 51.0284C162.648 51.0625 162.434 51.0947 162.226 51.125C162.018 51.1515 161.843 51.1742 161.703 51.1932C161.374 51.2348 161.072 51.3049 160.8 51.4034C160.531 51.5019 160.315 51.6439 160.152 51.8295C159.993 52.0114 159.913 52.2538 159.913 52.5568C159.913 52.9773 160.069 53.2955 160.379 53.5114C160.69 53.7235 161.086 53.8295 161.567 53.8295ZM169.466 43.3636V55H167.767V43.3636H169.466ZM174.291 55.1932C173.738 55.1932 173.238 55.0909 172.791 54.8864C172.344 54.678 171.99 54.3769 171.729 53.983C171.471 53.589 171.342 53.1061 171.342 52.5341C171.342 52.0417 171.437 51.6364 171.626 51.3182C171.816 51 172.071 50.7481 172.393 50.5625C172.715 50.3769 173.075 50.2367 173.473 50.142C173.871 50.0473 174.276 49.9754 174.689 49.9261C175.212 49.8655 175.636 49.8163 175.962 49.7784C176.287 49.7367 176.524 49.6705 176.672 49.5795C176.82 49.4886 176.893 49.3409 176.893 49.1364V49.0966C176.893 48.6004 176.753 48.2159 176.473 47.9432C176.196 47.6705 175.784 47.5341 175.234 47.5341C174.662 47.5341 174.212 47.661 173.882 47.9148C173.556 48.1648 173.331 48.4432 173.206 48.75L171.609 48.3864C171.799 47.8561 172.075 47.428 172.439 47.1023C172.806 46.7727 173.229 46.5341 173.706 46.3864C174.183 46.2348 174.685 46.1591 175.212 46.1591C175.56 46.1591 175.929 46.2008 176.32 46.2841C176.714 46.3636 177.081 46.5114 177.422 46.7273C177.767 46.9432 178.049 47.2519 178.268 47.6534C178.488 48.0511 178.598 48.5682 178.598 49.2045V55H176.939V53.8068H176.871C176.761 54.0265 176.596 54.2424 176.376 54.4545C176.157 54.6667 175.875 54.8428 175.53 54.983C175.185 55.1231 174.772 55.1932 174.291 55.1932ZM174.661 53.8295C175.13 53.8295 175.532 53.7367 175.865 53.5511C176.202 53.3655 176.458 53.1231 176.632 52.8239C176.81 52.5208 176.899 52.197 176.899 51.8523V50.7273C176.839 50.7879 176.721 50.8447 176.547 50.8977C176.376 50.947 176.181 50.9905 175.962 51.0284C175.742 51.0625 175.528 51.0947 175.32 51.125C175.111 51.1515 174.937 51.1742 174.797 51.1932C174.467 51.2348 174.166 51.3049 173.893 51.4034C173.625 51.5019 173.409 51.6439 173.246 51.8295C173.087 52.0114 173.007 52.2538 173.007 52.5568C173.007 52.9773 173.162 53.2955 173.473 53.5114C173.784 53.7235 174.179 53.8295 174.661 53.8295ZM182.56 49.8182V55H180.861V46.2727H182.491V47.6932H182.599C182.8 47.2311 183.115 46.8598 183.543 46.5795C183.974 46.2992 184.518 46.1591 185.173 46.1591C185.768 46.1591 186.289 46.2841 186.736 46.5341C187.183 46.7803 187.529 47.1477 187.776 47.6364C188.022 48.125 188.145 48.7292 188.145 49.4489V55H186.446V49.6534C186.446 49.0208 186.281 48.5265 185.952 48.1705C185.622 47.8106 185.17 47.6307 184.594 47.6307C184.2 47.6307 183.849 47.7159 183.543 47.8864C183.24 48.0568 182.999 48.3068 182.821 48.6364C182.647 48.9621 182.56 49.3561 182.56 49.8182ZM194.099 55.1761C193.255 55.1761 192.527 54.9848 191.918 54.6023C191.312 54.2159 190.846 53.6837 190.52 53.0057C190.194 52.3277 190.031 51.5511 190.031 50.6761C190.031 49.7898 190.198 49.0076 190.531 48.3295C190.865 47.6477 191.334 47.1155 191.94 46.733C192.546 46.3504 193.26 46.1591 194.082 46.1591C194.745 46.1591 195.336 46.2822 195.855 46.5284C196.374 46.7708 196.793 47.1117 197.111 47.5511C197.433 47.9905 197.624 48.5038 197.685 49.0909H196.031C195.94 48.6818 195.732 48.3295 195.406 48.0341C195.084 47.7386 194.652 47.5909 194.111 47.5909C193.637 47.5909 193.223 47.7159 192.866 47.9659C192.514 48.2121 192.24 48.5644 192.043 49.0227C191.846 49.4773 191.747 50.0152 191.747 50.6364C191.747 51.2727 191.844 51.822 192.037 52.2841C192.23 52.7462 192.503 53.1042 192.855 53.358C193.211 53.6117 193.63 53.7386 194.111 53.7386C194.433 53.7386 194.724 53.6799 194.986 53.5625C195.251 53.4413 195.473 53.2689 195.651 53.0455C195.832 52.822 195.959 52.553 196.031 52.2386H197.685C197.624 52.803 197.44 53.3068 197.134 53.75C196.827 54.1932 196.416 54.5417 195.901 54.7955C195.389 55.0492 194.789 55.1761 194.099 55.1761ZM203.263 55.1761C202.403 55.1761 201.662 54.9924 201.041 54.625C200.424 54.2538 199.946 53.733 199.609 53.0625C199.276 52.3883 199.109 51.5985 199.109 50.6932C199.109 49.7992 199.276 49.0114 199.609 48.3295C199.946 47.6477 200.416 47.1155 201.018 46.733C201.625 46.3504 202.333 46.1591 203.143 46.1591C203.636 46.1591 204.113 46.2405 204.575 46.4034C205.037 46.5663 205.452 46.822 205.82 47.1705C206.187 47.5189 206.477 47.9716 206.689 48.5284C206.901 49.0814 207.007 49.7538 207.007 50.5455V51.1477H200.07V49.875H205.342C205.342 49.428 205.251 49.0322 205.07 48.6875C204.888 48.339 204.632 48.0644 204.303 47.8636C203.977 47.6629 203.594 47.5625 203.155 47.5625C202.678 47.5625 202.261 47.6799 201.905 47.9148C201.553 48.1458 201.28 48.4489 201.087 48.8239C200.897 49.1951 200.803 49.5985 200.803 50.0341V51.0284C200.803 51.6117 200.905 52.108 201.109 52.517C201.318 52.9261 201.607 53.2386 201.979 53.4545C202.35 53.6667 202.784 53.7727 203.28 53.7727C203.602 53.7727 203.895 53.7273 204.161 53.6364C204.426 53.5417 204.655 53.4015 204.848 53.2159C205.041 53.0303 205.189 52.8011 205.291 52.5284L206.899 52.8182C206.77 53.2917 206.539 53.7064 206.206 54.0625C205.876 54.4148 205.462 54.6894 204.962 54.8864C204.465 55.0795 203.899 55.1761 203.263 55.1761Z" fill="#B6B6B6"/>
<path d="M95.8164 94.3281C94.0664 94.3281 92.5078 94.0273 91.1406 93.4258C89.7813 92.8164 88.707 91.9805 87.918 90.918C87.1367 89.8477 86.7344 88.6133 86.7109 87.2148H91.8203C91.8516 87.8008 92.043 88.3164 92.3945 88.7617C92.7539 89.1992 93.2305 89.5391 93.8242 89.7813C94.418 90.0234 95.0859 90.1445 95.8281 90.1445C96.6016 90.1445 97.2852 90.0078 97.8789 89.7344C98.4727 89.4609 98.9375 89.082 99.2734 88.5977C99.6094 88.1133 99.7773 87.5547 99.7773 86.9219C99.7773 86.2812 99.5977 85.7148 99.2383 85.2227C98.8867 84.7227 98.3789 84.332 97.7148 84.0508C97.0586 83.7695 96.2773 83.6289 95.3711 83.6289H93.1328V79.9023H95.3711C96.1367 79.9023 96.8125 79.7695 97.3984 79.5039C97.9922 79.2383 98.4531 78.8711 98.7813 78.4023C99.1094 77.9258 99.2734 77.3711 99.2734 76.7383C99.2734 76.1367 99.1289 75.6094 98.8398 75.1562C98.5586 74.6953 98.1602 74.3359 97.6445 74.0781C97.1367 73.8203 96.543 73.6914 95.8633 73.6914C95.1758 73.6914 94.5469 73.8164 93.9766 74.0664C93.4063 74.3086 92.9492 74.6562 92.6055 75.1094C92.2617 75.5625 92.0781 76.0937 92.0547 76.7031H87.1914C87.2148 75.3203 87.6094 74.1016 88.375 73.0469C89.1406 71.9922 90.1719 71.168 91.4688 70.5742C92.7734 69.9727 94.2461 69.6719 95.8867 69.6719C97.543 69.6719 98.9922 69.9727 100.234 70.5742C101.477 71.1758 102.441 71.9883 103.129 73.0117C103.824 74.0273 104.168 75.168 104.16 76.4336C104.168 77.7773 103.75 78.8984 102.906 79.7969C102.07 80.6953 100.98 81.2656 99.6367 81.5078V81.6953C101.402 81.9219 102.746 82.5352 103.668 83.5352C104.598 84.5273 105.059 85.7695 105.051 87.2617C105.059 88.6289 104.664 89.8438 103.867 90.9062C103.078 91.9687 101.988 92.8047 100.598 93.4141C99.207 94.0234 97.6133 94.3281 95.8164 94.3281ZM117.464 94.3281C115.808 94.3281 114.331 94.0234 113.034 93.4141C111.745 92.8047 110.722 91.9648 109.964 90.8945C109.206 89.8242 108.812 88.5977 108.78 87.2148H113.702C113.757 88.1445 114.147 88.8984 114.874 89.4766C115.601 90.0547 116.464 90.3437 117.464 90.3437C118.261 90.3437 118.964 90.168 119.573 89.8164C120.19 89.457 120.671 88.9609 121.015 88.3281C121.366 87.6875 121.542 86.9531 121.542 86.125C121.542 85.2812 121.362 84.5391 121.003 83.8984C120.651 83.2578 120.163 82.7578 119.538 82.3984C118.913 82.0391 118.198 81.8555 117.394 81.8477C116.69 81.8477 116.007 81.9922 115.343 82.2812C114.687 82.5703 114.175 82.9648 113.808 83.4648L109.296 82.6562L110.433 70H125.104V74.1484H114.616L113.995 80.1602H114.136C114.558 79.5664 115.194 79.0742 116.046 78.6836C116.897 78.293 117.851 78.0977 118.905 78.0977C120.351 78.0977 121.64 78.4375 122.772 79.1172C123.905 79.7969 124.8 80.7305 125.456 81.918C126.112 83.0977 126.437 84.457 126.429 85.9961C126.437 87.6133 126.062 89.0508 125.304 90.3086C124.554 91.5586 123.503 92.543 122.151 93.2617C120.808 93.9727 119.245 94.3281 117.464 94.3281ZM129.604 89.7813V85.7852L139.624 70H143.069V75.5312H141.03L134.714 85.5273V85.7148H148.952V89.7813H129.604ZM141.124 94V88.5625L141.218 86.793V70H145.976V94H141.124ZM161.099 94.3281C159.442 94.3281 157.966 94.0234 156.669 93.4141C155.38 92.8047 154.356 91.9648 153.599 90.8945C152.841 89.8242 152.446 88.5977 152.415 87.2148H157.337C157.392 88.1445 157.782 88.8984 158.509 89.4766C159.235 90.0547 160.099 90.3437 161.099 90.3437C161.896 90.3437 162.599 90.168 163.208 89.8164C163.825 89.457 164.306 88.9609 164.649 88.3281C165.001 87.6875 165.177 86.9531 165.177 86.125C165.177 85.2812 164.997 84.5391 164.638 83.8984C164.286 83.2578 163.798 82.7578 163.173 82.3984C162.548 82.0391 161.833 81.8555 161.028 81.8477C160.325 81.8477 159.642 81.9922 158.978 82.2812C158.321 82.5703 157.81 82.9648 157.442 83.4648L152.931 82.6562L154.067 70H168.739V74.1484H158.251L157.63 80.1602H157.771C158.192 79.5664 158.829 79.0742 159.681 78.6836C160.532 78.293 161.485 78.0977 162.54 78.0977C163.985 78.0977 165.274 78.4375 166.407 79.1172C167.54 79.7969 168.435 80.7305 169.091 81.918C169.747 83.0977 170.071 84.457 170.063 85.9961C170.071 87.6133 169.696 89.0508 168.938 90.3086C168.188 91.5586 167.138 92.543 165.786 93.2617C164.442 93.9727 162.88 94.3281 161.099 94.3281ZM175.794 94.3047C175.021 94.3047 174.356 94.0313 173.802 93.4844C173.255 92.9297 172.981 92.2656 172.981 91.4922C172.981 90.7266 173.255 90.0703 173.802 89.5234C174.356 88.9766 175.021 88.7031 175.794 88.7031C176.544 88.7031 177.2 88.9766 177.763 89.5234C178.325 90.0703 178.606 90.7266 178.606 91.4922C178.606 92.0078 178.474 92.4805 178.208 92.9102C177.95 93.332 177.61 93.6719 177.188 93.9297C176.767 94.1797 176.302 94.3047 175.794 94.3047ZM182.658 94V90.3437L191.201 82.4336C191.928 81.7305 192.537 81.0977 193.029 80.5352C193.529 79.9727 193.908 79.4219 194.166 78.8828C194.424 78.3359 194.553 77.7461 194.553 77.1133C194.553 76.4102 194.393 75.8047 194.072 75.2969C193.752 74.7812 193.314 74.3867 192.76 74.1133C192.205 73.832 191.576 73.6914 190.873 73.6914C190.139 73.6914 189.498 73.8398 188.951 74.1367C188.404 74.4336 187.982 74.8594 187.686 75.4141C187.389 75.9687 187.24 76.6289 187.24 77.3945H182.424C182.424 75.8242 182.779 74.4609 183.49 73.3047C184.201 72.1484 185.197 71.2539 186.479 70.6211C187.76 69.9883 189.236 69.6719 190.908 69.6719C192.627 69.6719 194.123 69.9766 195.396 70.5859C196.678 71.1875 197.674 72.0234 198.385 73.0937C199.096 74.1641 199.451 75.3906 199.451 76.7734C199.451 77.6797 199.271 78.5742 198.912 79.457C198.561 80.3398 197.932 81.3203 197.025 82.3984C196.119 83.4687 194.842 84.7539 193.193 86.2539L189.689 89.6875V89.8516H199.768V94H182.658ZM212.315 94.3281C210.565 94.3281 209.007 94.0273 207.64 93.4258C206.28 92.8164 205.206 91.9805 204.417 90.918C203.636 89.8477 203.233 88.6133 203.21 87.2148H208.319C208.351 87.8008 208.542 88.3164 208.894 88.7617C209.253 89.1992 209.729 89.5391 210.323 89.7813C210.917 90.0234 211.585 90.1445 212.327 90.1445C213.101 90.1445 213.784 90.0078 214.378 89.7344C214.972 89.4609 215.437 89.082 215.772 88.5977C216.108 88.1133 216.276 87.5547 216.276 86.9219C216.276 86.2812 216.097 85.7148 215.737 85.2227C215.386 84.7227 214.878 84.332 214.214 84.0508C213.558 83.7695 212.776 83.6289 211.87 83.6289H209.632V79.9023H211.87C212.636 79.9023 213.312 79.7695 213.897 79.5039C214.491 79.2383 214.952 78.8711 215.28 78.4023C215.608 77.9258 215.772 77.3711 215.772 76.7383C215.772 76.1367 215.628 75.6094 215.339 75.1562C215.058 74.6953 214.659 74.3359 214.144 74.0781C213.636 73.8203 213.042 73.6914 212.362 73.6914C211.675 73.6914 211.046 73.8164 210.476 74.0664C209.905 74.3086 209.448 74.6562 209.104 75.1094C208.761 75.5625 208.577 76.0937 208.554 76.7031H203.69C203.714 75.3203 204.108 74.1016 204.874 73.0469C205.64 71.9922 206.671 71.168 207.968 70.5742C209.272 69.9727 210.745 69.6719 212.386 69.6719C214.042 69.6719 215.491 69.9727 216.733 70.5742C217.976 71.1758 218.94 71.9883 219.628 73.0117C220.323 74.0273 220.667 75.168 220.659 76.4336C220.667 77.7773 220.249 78.8984 219.405 79.7969C218.569 80.6953 217.479 81.2656 216.136 81.5078V81.6953C217.901 81.9219 219.245 82.5352 220.167 83.5352C221.097 84.5273 221.558 85.7695 221.55 87.2617C221.558 88.6289 221.163 89.8438 220.366 90.9062C219.577 91.9687 218.487 92.8047 217.097 93.4141C215.706 94.0234 214.112 94.3281 212.315 94.3281Z" fill="#263238"/>
<path d="M105.562 254.045V246.364H107.091V254.045H105.562ZM102.489 250.966V249.443H110.17V250.966H102.489ZM116.838 256.159C116.319 256.152 115.808 256.057 115.304 255.875C114.804 255.693 114.349 255.39 113.94 254.966C113.531 254.542 113.204 253.972 112.957 253.256C112.715 252.54 112.594 251.646 112.594 250.574C112.594 249.559 112.694 248.657 112.895 247.869C113.099 247.081 113.393 246.417 113.776 245.875C114.158 245.33 114.62 244.915 115.162 244.631C115.704 244.347 116.312 244.205 116.986 244.205C117.679 244.205 118.295 244.341 118.832 244.614C119.37 244.886 119.806 245.263 120.139 245.744C120.476 246.225 120.69 246.773 120.781 247.386H119.048C118.931 246.902 118.698 246.506 118.349 246.199C118.001 245.892 117.546 245.739 116.986 245.739C116.134 245.739 115.469 246.11 114.991 246.852C114.518 247.595 114.279 248.627 114.276 249.949H114.361C114.562 249.619 114.808 249.339 115.099 249.108C115.395 248.873 115.724 248.693 116.088 248.568C116.455 248.439 116.842 248.375 117.247 248.375C117.921 248.375 118.531 248.54 119.077 248.869C119.626 249.195 120.063 249.646 120.389 250.222C120.715 250.797 120.878 251.456 120.878 252.199C120.878 252.941 120.709 253.614 120.372 254.216C120.039 254.818 119.569 255.295 118.963 255.648C118.357 255.996 117.649 256.167 116.838 256.159ZM116.832 254.682C117.279 254.682 117.679 254.572 118.031 254.352C118.384 254.133 118.662 253.837 118.866 253.466C119.071 253.095 119.173 252.68 119.173 252.222C119.173 251.775 119.073 251.367 118.872 251C118.675 250.633 118.402 250.341 118.054 250.125C117.709 249.909 117.315 249.801 116.872 249.801C116.535 249.801 116.223 249.866 115.935 249.994C115.651 250.123 115.401 250.301 115.185 250.528C114.969 250.756 114.798 251.017 114.673 251.312C114.552 251.604 114.491 251.913 114.491 252.239C114.491 252.674 114.592 253.078 114.793 253.449C114.997 253.82 115.276 254.119 115.628 254.347C115.984 254.57 116.385 254.682 116.832 254.682ZM123.558 256.108C123.248 256.108 122.981 255.998 122.757 255.778C122.534 255.555 122.422 255.286 122.422 254.972C122.422 254.661 122.534 254.396 122.757 254.176C122.981 253.953 123.248 253.841 123.558 253.841C123.869 253.841 124.136 253.953 124.359 254.176C124.583 254.396 124.695 254.661 124.695 254.972C124.695 255.18 124.642 255.371 124.536 255.545C124.433 255.716 124.297 255.852 124.126 255.955C123.956 256.057 123.767 256.108 123.558 256.108ZM130.601 256.159C129.889 256.159 129.249 256.023 128.68 255.75C128.116 255.473 127.665 255.095 127.328 254.614C126.991 254.133 126.811 253.583 126.788 252.966H128.493C128.535 253.466 128.756 253.877 129.158 254.199C129.559 254.521 130.04 254.682 130.601 254.682C131.048 254.682 131.444 254.58 131.788 254.375C132.137 254.167 132.41 253.881 132.607 253.517C132.807 253.153 132.908 252.739 132.908 252.273C132.908 251.799 132.805 251.377 132.601 251.006C132.396 250.634 132.114 250.343 131.754 250.131C131.398 249.919 130.989 249.811 130.527 249.807C130.175 249.807 129.821 249.867 129.464 249.989C129.108 250.11 128.821 250.269 128.601 250.466L126.993 250.227L127.646 244.364H134.044V245.869H129.107L128.737 249.125H128.805C129.033 248.905 129.334 248.722 129.709 248.574C130.088 248.426 130.493 248.352 130.925 248.352C131.633 248.352 132.264 248.521 132.817 248.858C133.374 249.195 133.811 249.655 134.129 250.239C134.451 250.818 134.61 251.485 134.607 252.239C134.61 252.992 134.44 253.665 134.095 254.256C133.754 254.847 133.281 255.312 132.675 255.653C132.072 255.991 131.381 256.159 130.601 256.159ZM140.614 256.159C139.799 256.159 139.08 256.019 138.455 255.739C137.833 255.458 137.347 255.072 136.994 254.58C136.642 254.087 136.468 253.527 136.472 252.898C136.468 252.405 136.568 251.953 136.773 251.54C136.981 251.123 137.263 250.777 137.619 250.5C137.975 250.22 138.373 250.042 138.812 249.966V249.898C138.233 249.758 137.769 249.447 137.42 248.966C137.072 248.485 136.9 247.932 136.903 247.307C136.9 246.712 137.057 246.182 137.375 245.716C137.697 245.246 138.138 244.877 138.699 244.608C139.259 244.339 139.898 244.205 140.614 244.205C141.322 244.205 141.955 244.341 142.511 244.614C143.072 244.883 143.513 245.252 143.835 245.722C144.157 246.187 144.32 246.716 144.324 247.307C144.32 247.932 144.142 248.485 143.79 248.966C143.438 249.447 142.979 249.758 142.415 249.898V249.966C142.85 250.042 143.242 250.22 143.591 250.5C143.943 250.777 144.223 251.123 144.432 251.54C144.644 251.953 144.752 252.405 144.756 252.898C144.752 253.527 144.574 254.087 144.222 254.58C143.869 255.072 143.381 255.458 142.756 255.739C142.134 256.019 141.42 256.159 140.614 256.159ZM140.614 254.722C141.095 254.722 141.511 254.642 141.864 254.483C142.216 254.32 142.489 254.095 142.682 253.807C142.875 253.515 142.973 253.174 142.977 252.784C142.973 252.379 142.867 252.021 142.659 251.71C142.455 251.4 142.176 251.155 141.824 250.977C141.472 250.799 141.068 250.71 140.614 250.71C140.155 250.71 139.748 250.799 139.392 250.977C139.036 251.155 138.756 251.4 138.551 251.71C138.347 252.021 138.246 252.379 138.25 252.784C138.246 253.174 138.339 253.515 138.528 253.807C138.722 254.095 138.996 254.32 139.352 254.483C139.708 254.642 140.129 254.722 140.614 254.722ZM140.614 249.307C141 249.307 141.343 249.229 141.642 249.074C141.941 248.919 142.176 248.703 142.347 248.426C142.521 248.15 142.61 247.826 142.614 247.455C142.61 247.091 142.523 246.773 142.352 246.5C142.186 246.227 141.953 246.017 141.653 245.869C141.354 245.718 141.008 245.642 140.614 245.642C140.212 245.642 139.86 245.718 139.557 245.869C139.258 246.017 139.025 246.227 138.858 246.5C138.691 246.773 138.61 247.091 138.614 247.455C138.61 247.826 138.693 248.15 138.864 248.426C139.034 248.703 139.269 248.919 139.568 249.074C139.871 249.229 140.22 249.307 140.614 249.307ZM152.865 253.818V253.205C152.865 252.765 152.956 252.364 153.138 252C153.323 251.633 153.592 251.339 153.945 251.119C154.301 250.896 154.731 250.784 155.234 250.784C155.75 250.784 156.181 250.894 156.53 251.114C156.878 251.333 157.142 251.627 157.32 251.994C157.501 252.362 157.592 252.765 157.592 253.205V253.818C157.592 254.258 157.501 254.661 157.32 255.028C157.138 255.392 156.871 255.686 156.518 255.909C156.17 256.129 155.742 256.239 155.234 256.239C154.723 256.239 154.291 256.129 153.939 255.909C153.587 255.686 153.32 255.392 153.138 255.028C152.956 254.661 152.865 254.258 152.865 253.818ZM154.189 253.205V253.818C154.189 254.144 154.267 254.439 154.422 254.705C154.577 254.97 154.848 255.102 155.234 255.102C155.617 255.102 155.884 254.97 156.036 254.705C156.187 254.439 156.263 254.144 156.263 253.818V253.205C156.263 252.879 156.189 252.583 156.041 252.318C155.897 252.053 155.628 251.92 155.234 251.92C154.856 251.92 154.587 252.053 154.428 252.318C154.268 252.583 154.189 252.879 154.189 253.205ZM147.013 247.159V246.545C147.013 246.106 147.104 245.703 147.286 245.335C147.471 244.968 147.74 244.674 148.092 244.455C148.448 244.235 148.878 244.125 149.382 244.125C149.897 244.125 150.329 244.235 150.678 244.455C151.026 244.674 151.289 244.968 151.467 245.335C151.645 245.703 151.734 246.106 151.734 246.545V247.159C151.734 247.598 151.643 248.002 151.462 248.369C151.284 248.733 151.018 249.027 150.666 249.25C150.318 249.47 149.89 249.58 149.382 249.58C148.867 249.58 148.433 249.47 148.081 249.25C147.732 249.027 147.467 248.733 147.286 248.369C147.104 248.002 147.013 247.598 147.013 247.159ZM148.342 246.545V247.159C148.342 247.485 148.418 247.78 148.57 248.045C148.725 248.311 148.996 248.443 149.382 248.443C149.761 248.443 150.026 248.311 150.178 248.045C150.333 247.78 150.411 247.485 150.411 247.159V246.545C150.411 246.22 150.337 245.924 150.189 245.659C150.041 245.394 149.772 245.261 149.382 245.261C149.003 245.261 148.734 245.394 148.575 245.659C148.42 245.924 148.342 246.22 148.342 246.545ZM147.553 256L155.553 244.364H156.911L148.911 256H147.553Z" fill="#3EBA59"/>
<rect x="53" y="123" width="212" height="96" rx="10" fill="#F3F3F3"/>
<line x1="79" y1="139" x2="79" y2="208" stroke="white" stroke-width="2"/>
<line x1="204" y1="139" x2="204" y2="208" stroke="white" stroke-width="2"/>
<line x1="143" y1="139" x2="143" y2="208" stroke="white" stroke-width="2"/>
<line x1="112" y1="139" x2="112" y2="208" stroke="white" stroke-width="2"/>
<line x1="237" y1="139" x2="237" y2="208" stroke="white" stroke-width="2"/>
<line x1="176" y1="139" x2="176" y2="208" stroke="white" stroke-width="2"/>
<line x1="251" y1="158" x2="67" y2="158" stroke="white" stroke-width="2"/>
<line x1="251" y1="191" x2="67" y2="191" stroke="white" stroke-width="2"/>
<path d="M278.5 126L264.368 136.014L280.107 143.246L278.5 126ZM58.6205 220.911C58.2952 221.673 58.6491 222.554 59.411 222.879C60.1729 223.205 61.0542 222.851 61.3795 222.089L58.6205 220.911ZM69.7455 198.675L71.125 199.264L69.7455 198.675ZM124.772 206.093L126.209 206.524L124.772 206.093ZM101.625 209.747L100.391 210.599L101.625 209.747ZM159.073 154.269L160.02 153.106L159.073 154.269ZM262.379 161.088L263.742 161.714L262.379 161.088ZM239.974 163.198L241.197 162.328L239.974 163.198ZM271.501 137.641L261.016 160.461L263.742 161.714L274.227 138.893L271.501 137.641ZM241.197 162.328L227.048 142.449L224.604 144.188L238.752 164.068L241.197 162.328ZM202.368 144.171L193.03 162.142L195.692 163.525L205.03 145.554L202.368 144.171ZM175.566 165.759L160.02 153.106L158.127 155.432L173.672 168.085L175.566 165.759ZM136.978 160.185L123.335 205.662L126.209 206.524L139.852 161.047L136.978 160.185ZM102.859 208.894L93.6309 195.537L91.1627 197.243L100.391 210.599L102.859 208.894ZM68.366 198.086L58.6205 220.911L61.3795 222.089L71.125 199.264L68.366 198.086ZM93.6309 195.537C87.1421 186.146 72.8485 187.588 68.366 198.086L71.125 199.264C74.6801 190.938 86.0164 189.794 91.1627 197.243L93.6309 195.537ZM123.335 205.662C120.565 214.898 108.34 216.827 102.859 208.894L100.391 210.599C107.302 220.602 122.715 218.169 126.209 206.524L123.335 205.662ZM160.02 153.106C152.01 146.586 139.946 150.293 136.978 160.185L139.852 161.047C142.206 153.201 151.774 150.262 158.127 155.432L160.02 153.106ZM193.03 162.142C189.669 168.609 181.218 170.359 175.566 165.759L173.672 168.085C180.798 173.886 191.455 171.68 195.692 163.525L193.03 162.142ZM227.048 142.449C220.763 133.618 207.365 134.553 202.368 144.171L205.03 145.554C208.993 137.926 219.619 137.185 224.604 144.188L227.048 142.449ZM261.016 160.461C257.324 168.496 246.324 169.532 241.197 162.328L238.752 164.068C245.217 173.151 259.087 171.845 263.742 161.714L261.016 160.461Z" fill="url(#paint0_linear_20_8001)"/>
<g filter="url(#filter1_d_20_8001)">
<circle cx="190.5" cy="161.5" r="10.5" fill="#D99FCC"/>
<circle cx="190.5" cy="161.5" r="9" stroke="white" stroke-width="3"/>
</g>
<defs>
<filter id="filter0_d_20_8001" x="0" y="0" width="323" height="357" filterUnits="userSpaceOnUse" color-interpolation-filters="sRGB">
<feFlood flood-opacity="0" result="BackgroundImageFix"/>
<feColorMatrix in="SourceAlpha" type="matrix" values="0 0 0 0 0 0 0 0 0 0 0 0 0 0 0 0 0 0 127 0" result="hardAlpha"/>
<feOffset dx="2" dy="34"/>
<feGaussianBlur stdDeviation="10"/>
<feComposite in2="hardAlpha" operator="out"/>
<feColorMatrix type="matrix" values="0 0 0 0 0.5125 0 0 0 0 0.5125 0 0 0 0 0.5125 0 0 0 0.25 0"/>
<feBlend mode="multiply" in2="BackgroundImageFix" result="effect1_dropShadow_20_8001"/>
<feBlend mode="normal" in="SourceGraphic" in2="effect1_dropShadow_20_8001" result="shape"/>
</filter>
<filter id="filter1_d_20_8001" x="176" y="151" width="29" height="29" filterUnits="userSpaceOnUse" color-interpolation-filters="sRGB">
<feFlood flood-opacity="0" result="BackgroundImageFix"/>
<feColorMatrix in="SourceAlpha" type="matrix" values="0 0 0 0 0 0 0 0 0 0 0 0 0 0 0 0 0 0 127 0" result="hardAlpha"/>
<feOffset dy="4"/>
<feGaussianBlur stdDeviation="2"/>
<feComposite in2="hardAlpha" operator="out"/>
<feColorMatrix type="matrix" values="0 0 0 0 0.870833 0 0 0 0 0.812778 0 0 0 0 0.842226 0 0 0 1 0"/>
<feBlend mode="normal" in2="BackgroundImageFix" result="effect1_dropShadow_20_8001"/>
<feBlend mode="normal" in="SourceGraphic" in2="effect1_dropShadow_20_8001" result="shape"/>
</filter>
<linearGradient id="paint0_linear_20_8001" x1="169.25" y1="232" x2="169.25" y2="126" gradientUnits="userSpaceOnUse">
<stop offset="0.186651" stop-color="#818AFF"/>
<stop offset="1" stop-color="#FF95A8" stop-opacity="0.81"/>
</linearGradient>
<clipPath id="clip0_20_8001">
<rect width="36" height="36" fill="white" transform="translate(60 234)"/>
</clipPath>
</defs>
</svg>
