<svg width="181" height="37" viewBox="0 0 181 37" fill="none" xmlns="http://www.w3.org/2000/svg">
<path d="M16.5979 5.8541C17.1966 4.01148 19.8034 4.01148 20.4021 5.8541L22.2045 11.4012C22.4722 12.2253 23.2401 12.7832 24.1066 12.7832H29.9392C31.8766 12.7832 32.6822 15.2624 31.1147 16.4012L26.3961 19.8295C25.6951 20.3388 25.4018 21.2415 25.6695 22.0656L27.4719 27.6127C28.0706 29.4553 25.9617 30.9876 24.3942 29.8488L19.6756 26.4205C18.9746 25.9112 18.0254 25.9112 17.3244 26.4205L12.6058 29.8488C11.0383 30.9876 8.92938 29.4553 9.52809 27.6127L11.3305 22.0656C11.5982 21.2415 11.3049 20.3388 10.6039 19.8295L5.88525 16.4012C4.31782 15.2624 5.12337 12.7832 7.06082 12.7832H12.8934C13.7599 12.7832 14.5278 12.2253 14.7955 11.4012L16.5979 5.8541Z" fill="#FFC839"/>
<path d="M88.5979 5.8541C89.1966 4.01148 91.8034 4.01148 92.4021 5.8541L94.2045 11.4012C94.4722 12.2253 95.2401 12.7832 96.1066 12.7832H101.939C103.877 12.7832 104.682 15.2624 103.115 16.4012L98.3961 19.8295C97.6951 20.3388 97.4018 21.2415 97.6695 22.0656L99.4719 27.6127C100.071 29.4553 97.9617 30.9876 96.3942 29.8488L91.6756 26.4205C90.9746 25.9112 90.0254 25.9112 89.3244 26.4205L84.6058 29.8488C83.0383 30.9876 80.9294 29.4553 81.5281 27.6127L83.3305 22.0656C83.5982 21.2415 83.3049 20.3388 82.6039 19.8295L77.8853 16.4012C76.3178 15.2624 77.1234 12.7832 79.0608 12.7832H84.8934C85.7599 12.7832 86.5278 12.2253 86.7955 11.4012L88.5979 5.8541Z" fill="#FFC839"/>
<path d="M160.598 5.8541C161.197 4.01148 163.803 4.01148 164.402 5.8541L166.204 11.4012C166.472 12.2253 167.24 12.7832 168.107 12.7832H173.939C175.877 12.7832 176.682 15.2624 175.115 16.4012L170.396 19.8295C169.695 20.3388 169.402 21.2415 169.67 22.0656L171.472 27.6127C172.071 29.4553 169.962 30.9876 168.394 29.8488L163.676 26.4205C162.975 25.9112 162.025 25.9112 161.324 26.4205L156.606 29.8488C155.038 30.9876 152.929 29.4553 153.528 27.6127L155.33 22.0656C155.598 21.2415 155.305 20.3388 154.604 19.8295L149.885 16.4012C148.318 15.2624 149.123 12.7832 151.061 12.7832H156.893C157.76 12.7832 158.528 12.2253 158.796 11.4012L160.598 5.8541Z" fill="#FFC839"/>
<path d="M52.5883 6.21994C53.1671 4.33672 55.8329 4.33672 56.4117 6.21994L57.9949 11.3708C58.2529 12.2102 59.0284 12.7832 59.9066 12.7832H65.2561C67.1666 12.7832 67.9895 15.2056 66.4744 16.3693L61.9588 19.8376C61.2965 20.3463 61.02 21.213 61.2653 22.0113L62.9445 27.4745C63.5169 29.3368 61.3596 30.835 59.8145 29.6482L55.7183 26.5021C54.9998 25.9503 54.0002 25.9503 53.2817 26.5021L49.1855 29.6482C47.6404 30.835 45.4831 29.3368 46.0555 27.4745L47.7347 22.0113C47.98 21.213 47.7035 20.3463 47.0412 19.8376L42.5256 16.3693C41.0105 15.2056 41.8334 12.7832 43.7439 12.7832H49.0934C49.9716 12.7832 50.7471 12.2102 51.0051 11.3708L52.5883 6.21994Z" fill="#FFC839"/>
<path d="M124.588 6.21994C125.167 4.33672 127.833 4.33672 128.412 6.21994L129.995 11.3708C130.253 12.2102 131.028 12.7832 131.907 12.7832H137.256C139.167 12.7832 139.99 15.2056 138.474 16.3693L133.959 19.8376C133.296 20.3463 133.02 21.213 133.265 22.0113L134.944 27.4745C135.517 29.3368 133.36 30.835 131.814 29.6482L127.718 26.5021C127 25.9503 126 25.9503 125.282 26.5021L121.186 29.6482C119.64 30.835 117.483 29.3368 118.056 27.4745L119.735 22.0113C119.98 21.213 119.704 20.3463 119.041 19.8376L114.526 16.3693C113.01 15.2056 113.833 12.7832 115.744 12.7832H121.093C121.972 12.7832 122.747 12.2102 123.005 11.3708L124.588 6.21994Z" fill="#FFC839"/>
</svg>
