<svg width="40" height="40" viewBox="0 0 40 40" fill="none" xmlns="http://www.w3.org/2000/svg">
<g clip-path="url(#clip0_20_6528)">
<path d="M20 40C31.0457 40 40 31.0457 40 20C40 8.9543 31.0457 0 20 0C8.9543 0 0 8.9543 0 20C0 31.0457 8.9543 40 20 40Z" fill="#1387C9"/>
<path d="M20.0667 22.9667L32.0592 15.9867L20.0667 8.88169L8.19423 15.9867L20.0667 22.9667ZM7.55923 19.3167C7.55898 19.4827 7.60224 19.6459 7.6847 19.79C7.76717 19.9341 7.88595 20.0541 8.02923 20.1379L20.063 27.1479L32.2942 19.9129C32.4347 19.8317 32.594 19.7889 32.7563 19.7888C32.9185 19.7887 33.0779 19.8314 33.2184 19.9125C33.359 19.9936 33.4757 20.1103 33.5568 20.2508C33.6379 20.3913 33.6805 20.5507 33.6805 20.7129V23.9954C33.6804 24.1558 33.6388 24.3135 33.5597 24.453C33.4807 24.5926 33.3668 24.7092 33.2292 24.7917L20.533 32.3704C20.3922 32.4546 20.2313 32.4994 20.0672 32.5C19.9032 32.5007 19.742 32.4572 19.6005 32.3742L6.57548 24.7167C6.42538 24.6278 6.31639 24.4833 6.27216 24.3146C6.22793 24.1459 6.25203 23.9665 6.33923 23.8154C6.38206 23.7407 6.43929 23.6753 6.50759 23.6228C6.5759 23.5704 6.65393 23.532 6.73716 23.5099C6.8204 23.4878 6.90719 23.4825 6.99251 23.4941C7.07783 23.5058 7.15999 23.5343 7.23423 23.5779L20.063 31.1192L32.3717 23.7717V21.3967L20.5305 28.4004C20.3902 28.4837 20.2303 28.5279 20.0672 28.5285C19.9042 28.5292 19.7439 28.4863 19.603 28.4042L7.37423 21.2792C7.03165 21.0789 6.74759 20.7923 6.5504 20.4479C6.35321 20.1036 6.2498 19.7135 6.25048 19.3167V16.2254C6.25007 16.0867 6.28626 15.9504 6.35538 15.8301C6.4245 15.7099 6.52411 15.6099 6.64417 15.5405C6.76423 15.471 6.90049 15.4344 7.0392 15.4344C7.17791 15.4344 7.31416 15.471 7.43423 15.5404L8.19423 15.9867L7.23923 16.5579C7.14789 16.6131 7.04439 16.645 6.93784 16.6509C6.83128 16.6567 6.72492 16.6362 6.62813 16.5913C6.53134 16.5463 6.44707 16.4783 6.38274 16.3931C6.31842 16.308 6.276 16.2083 6.25923 16.1029C6.23707 15.9717 6.25504 15.8368 6.3108 15.7159C6.36655 15.595 6.4575 15.4938 6.57173 15.4254L19.5955 7.63044C19.737 7.54551 19.8988 7.50044 20.0639 7.5C20.2289 7.49956 20.391 7.54377 20.533 7.62794L33.2967 15.1904C33.4356 15.2732 33.5504 15.3908 33.63 15.5315C33.7095 15.6722 33.7511 15.8312 33.7504 15.9929C33.7498 16.1545 33.707 16.3132 33.6264 16.4533C33.5457 16.5934 33.43 16.71 33.2905 16.7917L20.5255 24.2217C20.3851 24.3037 20.2254 24.3468 20.0628 24.3466C19.9002 24.3463 19.7406 24.3028 19.6005 24.2204L6.77548 16.6792C6.8433 16.7191 6.9193 16.743 6.99773 16.7492C7.07616 16.7553 7.15497 16.7436 7.22819 16.7148C7.30141 16.686 7.36713 16.641 7.42037 16.583C7.4736 16.5251 7.51297 16.4558 7.53548 16.3804C7.55148 16.3303 7.5599 16.2781 7.56048 16.2254V19.3179L7.55923 19.3167Z" fill="white"/>
</g>
<defs>
<clipPath id="clip0_20_6528">
<rect width="40" height="40" fill="white"/>
</clipPath>
</defs>
</svg>
