<svg width="178" height="36" viewBox="0 0 178 36" fill="none" xmlns="http://www.w3.org/2000/svg">
<path d="M16.8609 5.94773C17.4596 4.10511 20.0665 4.10511 20.6652 5.94773L22.3236 11.0517C22.5913 11.8758 23.3592 12.4337 24.2257 12.4337H29.5923C31.5298 12.4337 32.3353 14.9129 30.7679 16.0517L26.4262 19.2062C25.7252 19.7155 25.4319 20.6182 25.6996 21.4423L27.358 26.5463C27.9567 28.3889 25.8478 29.9212 24.2804 28.7824L19.9386 25.6279C19.2376 25.1186 18.2884 25.1186 17.5875 25.6279L13.2457 28.7824C11.6783 29.9212 9.56934 28.3889 10.168 26.5463L11.8264 21.4423C12.0942 20.6182 11.8009 19.7155 11.0999 19.2062L6.75816 16.0518C5.19074 14.9129 5.99628 12.4337 7.93373 12.4337H13.3004C14.1669 12.4337 14.9348 11.8758 15.2025 11.0518L16.8609 5.94773Z" fill="#FFB04E"/>
<path d="M87.5016 5.94773C88.1003 4.10511 90.7071 4.10511 91.3058 5.94773L92.9642 11.0517C93.2319 11.8758 93.9998 12.4337 94.8663 12.4337H100.233C102.17 12.4337 102.976 14.9129 101.409 16.0517L97.0668 19.2062C96.3658 19.7155 96.0725 20.6182 96.3403 21.4423L97.9987 26.5463C98.5974 28.3889 96.4884 29.9212 94.921 28.7824L90.5792 25.6279C89.8783 25.1186 88.9291 25.1186 88.2281 25.6279L83.8864 28.7824C82.3189 29.9212 80.21 28.3889 80.8087 26.5463L82.4671 21.4423C82.7348 20.6182 82.4415 19.7155 81.7405 19.2062L77.3988 16.0518C75.8314 14.9129 76.6369 12.4337 78.5744 12.4337H83.941C84.8075 12.4337 85.5754 11.8758 85.8432 11.0518L87.5016 5.94773Z" fill="#FFB04E"/>
<path d="M158.144 5.94773C158.743 4.10511 161.35 4.10511 161.948 5.94773L163.607 11.0517C163.875 11.8758 164.642 12.4337 165.509 12.4337H170.876C172.813 12.4337 173.619 14.9129 172.051 16.0517L167.709 19.2062C167.008 19.7155 166.715 20.6182 166.983 21.4423L168.641 26.5463C169.24 28.3889 167.131 29.9212 165.564 28.7824L161.222 25.6279C160.521 25.1186 159.572 25.1186 158.871 25.6279L154.529 28.7824C152.962 29.9212 150.853 28.3889 151.451 26.5463L153.11 21.4423C153.377 20.6182 153.084 19.7155 152.383 19.2062L148.041 16.0518C146.474 14.9129 147.279 12.4337 149.217 12.4337H154.584C155.45 12.4337 156.218 11.8758 156.486 11.0518L158.144 5.94773Z" fill="#FFB04E"/>
<path d="M52.1769 6.09338C52.7675 4.23415 55.3984 4.23414 55.9891 6.09338L57.5604 11.0393C57.8242 11.8697 58.5952 12.4337 59.4665 12.4337H64.6453C66.5719 12.4337 67.3845 14.89 65.8382 16.0391L61.5717 19.2093C60.8864 19.7185 60.5999 20.6065 60.8584 21.4202L62.4697 26.492C63.0576 28.3426 60.9293 29.861 59.3708 28.7029L55.2758 25.6602C54.5676 25.1339 53.5983 25.1339 52.8901 25.6602L48.7952 28.7029C47.2367 29.861 45.1083 28.3426 45.6962 26.492L47.3075 21.4202C47.566 20.6065 47.2795 19.7185 46.5943 19.2093L42.3278 16.0391C40.7814 14.89 41.5941 12.4337 43.5206 12.4337H48.6994C49.5707 12.4337 50.3417 11.8697 50.6055 11.0393L52.1769 6.09338Z" fill="#FFB04E"/>
<path d="M122.819 6.09338C123.41 4.23415 126.041 4.23414 126.632 6.09338L128.203 11.0393C128.467 11.8697 129.238 12.4337 130.109 12.4337H135.288C137.214 12.4337 138.027 14.89 136.481 16.0391L132.214 19.2093C131.529 19.7185 131.242 20.6065 131.501 21.4202L133.112 26.492C133.7 28.3426 131.572 29.861 130.013 28.7029L125.918 25.6602C125.21 25.1339 124.241 25.1339 123.533 25.6602L119.438 28.7029C117.879 29.861 115.751 28.3426 116.339 26.492L117.95 21.4202C118.209 20.6065 117.922 19.7185 117.237 19.2093L112.97 16.0391C111.424 14.89 112.237 12.4337 114.163 12.4337H119.342C120.213 12.4337 120.984 11.8697 121.248 11.0393L122.819 6.09338Z" fill="#FFB04E"/>
</svg>
