<svg width="30" height="27" viewBox="0 0 30 27" xmlns="http://www.w3.org/2000/svg">
<path d="M19.2148 13.688C18.7745 13.688 18.344 13.8199 17.9778 14.0672C17.6117 14.3144 17.3263 14.6658 17.1578 15.077C16.9892 15.4881 16.9452 15.9405 17.0311 16.3769C17.117 16.8134 17.329 17.2143 17.6404 17.529C17.9518 17.8436 18.3486 18.0579 18.7805 18.1448C19.2124 18.2316 19.6601 18.187 20.0669 18.0167C20.4738 17.8464 20.8215 17.558 21.0662 17.188C21.3108 16.818 21.4414 16.383 21.4414 15.938C21.4414 15.3413 21.2068 14.769 20.7893 14.347C20.3717 13.925 19.8054 13.688 19.2148 13.688Z" />
<path d="M11.6557 18.0166C12.7918 17.5411 13.3313 16.2249 12.8608 15.0769C12.3902 13.9288 11.0877 13.3836 9.95161 13.8592C8.81552 14.3347 8.27602 15.6509 8.7466 16.7989C9.21718 17.947 10.5197 18.4922 11.6557 18.0166Z" />
<path d="M29.7272 13.55C29.7272 11.6193 28.1853 10.0489 26.2925 10.0489C25.4947 10.0489 24.7221 10.3305 24.1084 10.845C21.9618 9.37363 19.1539 8.47299 16.1565 8.29039L17.5059 3.40037L21.579 4.21744C21.6956 5.85652 23.051 7.15702 24.6856 7.15702C26.4029 7.15702 27.8001 5.73334 27.8001 3.98717C27.8001 2.241 26.3538 0.812988 24.6365 0.812988C23.4387 0.812988 22.4095 1.50564 21.8857 2.59382L16.3657 1.48645L14.4582 8.26563L14.1743 8.27368C11.0689 8.41048 8.14273 9.32163 5.90835 10.8443C5.29486 10.328 4.52066 10.0463 3.72181 10.0489C1.82723 10.0489 0.287144 11.6193 0.287144 13.55C0.284439 14.1645 0.442415 14.7688 0.745124 15.302C1.04783 15.8352 1.48456 16.2783 2.01123 16.5867C1.97455 16.8604 1.95631 17.1363 1.95664 17.4125C1.96339 19.8723 3.33603 22.1787 5.82064 23.9119C8.28257 25.6203 11.5424 26.563 15.0072 26.563C18.4719 26.563 21.7391 25.6203 24.1967 23.9081C26.6826 22.175 28.0515 19.868 28.0515 17.405C28.051 17.1298 28.0338 16.8549 28 16.5818C28.527 16.2747 28.9643 15.8326 29.2675 15.3002C29.5708 14.7679 29.7294 14.1641 29.7272 13.55ZM24.6978 2.48426C24.989 2.48426 25.2736 2.57139 25.5156 2.73463C25.7577 2.89786 25.9464 3.12988 26.0578 3.40133C26.1692 3.67279 26.1984 3.97149 26.1416 4.25966C26.0848 4.54783 25.9446 4.81254 25.7387 5.0203C25.5328 5.22806 25.2706 5.36955 24.985 5.42687C24.6995 5.48419 24.4035 5.45477 24.1345 5.34233C23.8656 5.22989 23.6357 5.03948 23.4739 4.79518C23.3122 4.55088 23.2258 4.26366 23.2258 3.96984C23.2258 3.57584 23.3809 3.19798 23.657 2.91938C23.933 2.64078 24.3074 2.48426 24.6978 2.48426ZM1.92597 13.55C1.92418 13.0648 2.11314 12.5987 2.45142 12.2539C2.78969 11.9092 3.24965 11.7139 3.7304 11.7109C4.02189 11.7116 4.30875 11.7845 4.56576 11.9232C3.61509 12.8152 2.91405 13.8056 2.47613 14.8746C2.3025 14.7012 2.16452 14.495 2.0701 14.2677C1.97569 14.0403 1.92671 13.7964 1.92597 13.55ZM23.2761 22.5396C21.0841 24.0616 18.1487 24.9004 15.0102 24.9004C11.8718 24.9004 8.93515 24.0629 6.74494 22.5396C4.72094 21.1289 3.60221 19.3047 3.60221 17.4019C3.60334 16.8253 3.70614 16.2536 3.90581 15.7133C4.25419 14.739 4.89696 13.8266 5.81635 13.0028C6.1036 12.7467 6.40591 12.5084 6.72163 12.2891L6.74003 12.2761L6.75475 12.2655C8.94558 10.7478 11.8773 9.91339 15.0108 9.91339C18.1444 9.91339 21.0767 10.7496 23.2675 12.2655L23.2817 12.2761L23.3025 12.2915C23.6178 12.51 23.9199 12.7473 24.2072 13.0021C25.1272 13.8266 25.7699 14.7384 26.1183 15.7139C26.2447 16.068 26.3334 16.4347 26.3827 16.8077C26.4073 17.0058 26.4196 17.2053 26.4195 17.405C26.4189 19.3066 25.3026 21.1307 23.2761 22.5396ZM27.5449 14.869C27.1076 13.7994 26.4066 12.8084 25.4553 11.9152C25.7133 11.7778 26.0008 11.7064 26.2925 11.7072C26.7732 11.7102 27.2331 11.9055 27.5713 12.2502C27.9095 12.595 28.0983 13.0611 28.0963 13.5462C28.0959 13.7928 28.0469 14.0368 27.9523 14.2641C27.8576 14.4914 27.7192 14.6974 27.5449 14.8703V14.869Z" />
<path d="M19.1683 20.3267C19.1528 20.3424 17.5874 21.9561 15.0152 21.9686C12.4175 21.9561 10.9158 20.3917 10.8521 20.3267C10.8041 20.2787 10.7393 20.2517 10.6718 20.2517C10.6043 20.2517 10.5395 20.2787 10.4915 20.3267L9.64419 21.1686C9.62016 21.1927 9.60109 21.2214 9.58807 21.253C9.57506 21.2846 9.56836 21.3185 9.56836 21.3527C9.56836 21.3869 9.57506 21.4208 9.58807 21.4524C9.60109 21.484 9.62016 21.5126 9.64419 21.5367C9.85448 21.7492 11.7903 23.6761 15.0114 23.6899C18.2239 23.6761 20.1684 21.7492 20.3787 21.5367C20.4027 21.5126 20.4218 21.4838 20.4348 21.4522C20.4479 21.4206 20.4546 21.3866 20.4546 21.3524C20.4546 21.3181 20.4479 21.2842 20.4348 21.2525C20.4218 21.2209 20.4027 21.1922 20.3787 21.168L19.5307 20.3261C19.4829 20.2783 19.4184 20.2515 19.3511 20.2515C19.2838 20.2515 19.2192 20.2783 19.1714 20.3261L19.1683 20.3267Z" />
</svg>
