<svg width="66" height="66" viewBox="0 0 66 66" fill="none" xmlns="http://www.w3.org/2000/svg">
<circle cx="33" cy="33" r="33" fill="#F8DC96"/>
<path d="M24.8963 42V20.1818H33.5043C35.1591 20.1818 36.5689 20.4979 37.7337 21.13C38.8984 21.755 39.7862 22.625 40.397 23.7401C41.0149 24.848 41.3239 26.1264 41.3239 27.5753C41.3239 29.0241 41.0114 30.3026 40.3864 31.4105C39.7614 32.5185 38.8558 33.3814 37.6697 33.9993C36.4908 34.6172 35.0632 34.9261 33.3871 34.9261H27.9006V31.2294H32.6413C33.5291 31.2294 34.2607 31.0767 34.8359 30.7713C35.4183 30.4588 35.8516 30.0291 36.1357 29.4822C36.4268 28.9283 36.5724 28.2926 36.5724 27.5753C36.5724 26.8509 36.4268 26.2187 36.1357 25.679C35.8516 25.1321 35.4183 24.7095 34.8359 24.4112C34.2536 24.1058 33.5149 23.9531 32.62 23.9531H29.5092V42H24.8963Z" fill="#AB9762"/>
</svg>
