<svg width="24" height="27" viewBox="0 0 24 27" fill="none" xmlns="http://www.w3.org/2000/svg">
<path d="M0 23.5V16.7949C0 15.7737 0.519508 14.8226 1.37878 14.2707L4.90055 12.0088C5.83671 11.4075 7.02874 11.3737 7.99744 11.921L10.6644 13.4277C11.7692 14.0519 13.1472 13.9135 14.1058 13.082L19.0343 8.80716C20.9767 7.12231 24 8.50207 24 11.0734V23.5C24 25.1569 22.6569 26.5 21 26.5H3C1.34315 26.5 0 25.1569 0 23.5Z" fill="#959DFF"/>
<path d="M1 10.5L5.14395 8.05881C6.08363 7.50525 7.2497 7.50525 8.18938 8.05881L10.5012 9.4207C11.5987 10.0673 12.9849 9.9502 13.9585 9.12874L23 1.5" stroke="#7781FF" stroke-width="2" stroke-linecap="round"/>
</svg>
