<svg width="24" height="33" viewBox="0 0 24 33" fill="none" xmlns="http://www.w3.org/2000/svg">
<path d="M0 29.5V22.7949C0 21.7737 0.519508 20.8226 1.37878 20.2707L4.90055 18.0088C5.83671 17.4075 7.02874 17.3737 7.99744 17.921L10.6644 19.4277C11.7692 20.0519 13.1472 19.9135 14.1058 19.082L19.0343 14.8072C20.9767 13.1223 24 14.5021 24 17.0734V29.5C24 31.1569 22.6569 32.5 21 32.5H3C1.34315 32.5 0 31.1569 0 29.5Z" fill="#FF97C0"/>
<path d="M1 16.5L5.275 14.2614C6.14664 13.805 7.18669 13.805 8.05834 14.2614L10.6562 15.6218C11.6808 16.1583 12.9226 16.0581 13.8479 15.3641L23 8.5" stroke="#FF5196" stroke-width="2" stroke-linecap="round"/>
<path d="M11.3359 12.5V2.5H11.9766V12.5H11.3359ZM13.0352 5.80078C13.0039 5.48568 12.8698 5.24089 12.6328 5.06641C12.3958 4.89193 12.0742 4.80469 11.668 4.80469C11.3919 4.80469 11.1589 4.84375 10.9688 4.92187C10.7786 4.9974 10.6328 5.10286 10.5313 5.23828C10.4323 5.3737 10.3828 5.52734 10.3828 5.69922C10.3776 5.84245 10.4076 5.96745 10.4727 6.07422C10.5404 6.18099 10.6328 6.27344 10.75 6.35156C10.8672 6.42708 11.0026 6.49349 11.1562 6.55078C11.3099 6.60547 11.474 6.65234 11.6484 6.69141L12.3672 6.86328C12.7161 6.94141 13.0365 7.04557 13.3281 7.17578C13.6198 7.30599 13.8724 7.46615 14.0859 7.65625C14.2995 7.84635 14.4648 8.07031 14.582 8.32812C14.7018 8.58594 14.763 8.88151 14.7656 9.21484C14.763 9.70443 14.638 10.1289 14.3906 10.4883C14.1458 10.8451 13.7917 11.1224 13.3281 11.3203C12.8672 11.5156 12.3112 11.6133 11.6602 11.6133C11.0143 11.6133 10.4518 11.5143 9.97266 11.3164C9.49609 11.1185 9.1237 10.8255 8.85547 10.4375C8.58984 10.0469 8.45052 9.5638 8.4375 8.98828H10.0742C10.0924 9.25651 10.1693 9.48047 10.3047 9.66016C10.4427 9.83724 10.6263 9.97135 10.8555 10.0625C11.0872 10.151 11.349 10.1953 11.6406 10.1953C11.9271 10.1953 12.1758 10.1536 12.3867 10.0703C12.6003 9.98698 12.7656 9.87109 12.8828 9.72266C13 9.57422 13.0586 9.40365 13.0586 9.21094C13.0586 9.03125 13.0052 8.88021 12.8984 8.75781C12.7943 8.63542 12.6406 8.53125 12.4375 8.44531C12.237 8.35937 11.9909 8.28125 11.6992 8.21094L10.8281 7.99219C10.1536 7.82812 9.62109 7.57161 9.23047 7.22266C8.83984 6.8737 8.64583 6.40365 8.64844 5.8125C8.64583 5.32812 8.77474 4.90495 9.03516 4.54297C9.29818 4.18099 9.65885 3.89844 10.1172 3.69531C10.5755 3.49219 11.0964 3.39062 11.6797 3.39062C12.2734 3.39062 12.7917 3.49219 13.2344 3.69531C13.6797 3.89844 14.026 4.18099 14.2734 4.54297C14.5208 4.90495 14.6484 5.32422 14.6562 5.80078H13.0352Z" fill="#FF5196"/>
</svg>
